<?xml version="1.0" encoding="UTF-8" standalone="no"?>
<!-- Created with Inkscape (http://www.inkscape.org/) -->

<svg 
   viewBox="0 0 51 35"
   version="1.1"
   id="svg5"
   xml:space="preserve"
   xmlns="http://www.w3.org/2000/svg"
   xmlns:svg="http://www.w3.org/2000/svg"><defs
     id="defs2" /><g
     id="layer1"
     transform="translate(-25.863489,-116.17033)"><path
       id="path68767-0"
       style="fill:#004200;fill-opacity:1;stroke:#004200;stroke-width:0.379288;stroke-dasharray:none;stroke-opacity:1"
       d="m 66.605952,116.35939 v 2.8e-4 2.7e-4 c -0.109114,0.002 -0.222854,0.0106 -0.343444,0.0245 -0.968367,0.11076 -2.233478,0.92463 -3.535753,2.2749 -0.969557,1.00524 -1.722631,2.39781 -2.105228,3.89186 -0.277069,1.08191 -0.681169,3.73824 -0.681169,4.4775 0,0.68848 -0.07859,0.71389 -0.53135,0.17242 -0.571019,-0.68281 -1.022742,-0.70164 -1.907123,-0.0789 -1.987324,1.3994 -2.52172,1.50992 -4.751256,0.98117 -5.264438,-1.2484 -6.853703,-1.37309 -9.162054,-0.71773 -3.373659,0.95779 -7.862809,4.37928 -9.767321,7.44419 -0.517715,0.83316 -0.56342,0.86556 -1.103009,0.78533 -0.4912,-0.0731 -0.628327,-0.0101 -1.076627,0.48574 -0.895103,0.99209 -1.164043,2.83612 -0.594066,4.07444 0.406756,0.88368 1.179087,1.57548 2.635077,2.3601 1.235903,0.66608 1.561416,0.77799 3.964818,1.36462 1.998671,0.4879 7.464109,0.53102 9.051803,0.0714 1.426916,-0.41305 2.247118,-0.72365 3.087286,-1.16931 l 0.710037,-0.37654 -0.09184,0.50922 c -0.114694,0.63561 -0.305426,0.84932 -1.034072,1.15962 -1.992243,0.84845 -6.116828,1.08877 -9.537107,0.55585 -0.217066,-0.0337 -0.339112,0.14021 -0.525621,0.74891 -0.309746,1.01089 -1.329491,2.47545 -2.097763,3.01304 -0.32766,0.22919 -0.999054,0.54133 -1.492002,0.69315 -0.841308,0.25961 -0.977046,0.25862 -2.21249,-0.0132 -1.941427,-0.42733 -4.236586,-1.68517 -4.236586,-2.32181 0,-0.32806 0.967328,-0.90586 2.03753,-1.21699 1.180015,-0.34304 2.792701,-0.1121 3.148511,0.45098 0.234162,0.37059 0.649063,0.46596 0.649063,0.14915 0,-0.10682 -0.110219,-0.32905 -0.244874,-0.49404 -0.20531,-0.25133 -0.220586,-0.4361 -0.09458,-1.14252 0.180545,-1.01218 -0.03044,-1.38991 -0.675691,-1.21044 -0.78809,0.21926 -3.858648,0.15378 -4.1226,-0.0883 -0.361979,-0.33158 -0.319368,-0.41425 0.417855,-0.81126 0.750502,-0.40408 1.267981,-1.11196 1.016657,-1.39055 -0.246009,-0.27282 -0.714328,-0.0198 -1.305597,0.70619 -0.741873,0.91017 -1.437945,0.99744 -1.60311,1.05343 -0.213545,0.0592 -0.245888,0.0691 -0.527101,0.11971 -0.414236,0.0493 -0.398622,0.0628 -0.776994,0.0774 -0.290913,-0.003 -1.990784,-0.0562 -0.592331,0.13657 0.249409,0.0265 0.897074,0.0638 1.954773,-0.0585 0.719319,-0.0833 0.707104,-0.21861 1.071652,0.251 0.346398,0.44655 0.448817,0.47873 1.691102,0.52883 0.727196,0.0298 1.711359,-0.0165 2.187104,-0.0999 0.477246,-0.085 0.900524,-0.0909 0.944232,-0.0132 0.04356,0.0781 0.03291,0.48395 -0.02358,0.90173 -0.09154,0.67655 -0.137579,0.74795 -0.420595,0.6535 -0.813275,-0.2715 -2.140635,-0.28044 -2.93597,-0.0198 -1.177923,0.38576 -2.010307,0.94647 -2.068147,1.39299 -0.173473,1.33916 4.393379,3.37954 6.478948,2.89466 0.450514,-0.10484 1.07308,-0.32244 1.383492,-0.48409 0.833223,-0.43375 2.068263,-1.88068 2.548218,-2.98517 l 0.421099,-0.96877 0.817298,0.0827 c 2.731973,0.27713 7.745125,-0.11311 8.695916,-0.67719 0.444264,-0.26357 0.514748,-0.15444 0.125942,0.19512 -0.205698,0.18486 -0.938154,0.94734 -1.627388,1.69423 -1.880684,2.03799 -2.615548,3.47081 -2.083079,4.06094 v -0.001 c 0.227359,0.25299 1.173871,0.25862 1.720966,0.0101 4.271595,-1.93438 9.000153,-5.64161 9.239702,-7.24414 0.05006,-0.33493 0.02536,-0.98811 -0.05499,-1.45149 -0.172428,-0.99529 -1.109237,-2.81826 -1.594536,-3.10297 l -0.34121,-0.20021 0.58237,-1.0714 c 0.320355,-0.58929 0.726822,-1.46557 0.903166,-1.94716 l 0.320547,-0.87553 0.278471,0.39198 c 0.153065,0.21569 0.526704,0.52293 0.830492,0.68272 0.723335,0.38041 2.303362,0.39204 2.814518,0.0211 0.204087,-0.14828 0.440933,-0.26952 0.526124,-0.26952 0.21444,0 0.175771,1.77285 -0.054,2.47763 -0.163807,0.5025 -0.300398,0.61198 -1.148059,0.92074 -1.802583,0.65663 -2.832436,1.39748 -2.832436,2.03739 0,0.17098 0.177562,0.49136 0.394467,0.7125 0.67185,0.68496 1.25134,1.67515 1.25134,2.13777 0,0.31087 -0.288616,0.79737 -0.972351,1.63877 -1.079901,1.32898 -1.233727,1.89012 -0.604516,2.20785 0.875829,0.44226 4.065237,-1.28779 5.232577,-2.55511 0.21999,-0.25431 0.474444,-0.47788 0.624958,-0.79409 l 0.460706,0.15775 c 0.351622,0.0909 0.901671,0.25529 1.389298,0.30589 9.98e-4,-4.9e-4 -0.0074,-0.001 0.02178,1e-4 0.0176,-0.0165 0.0056,-0.0298 -0.0024,-0.0423 -0.02993,-0.0298 -0.05926,-0.044 -0.105266,-0.0648 -0.06555,-0.0265 -0.108577,-0.0334 -0.165894,-0.0648 -0.116724,-0.0483 -0.08074,-0.036 -0.221542,-0.10152 -0.09554,-0.0427 -0.107384,-0.0493 -0.275904,-0.127 -0.08066,-0.0331 -0.205609,-0.0717 -0.296881,-0.1131 -0.840058,-0.33741 -0.746283,-0.34512 -0.746283,-0.9097 0,-0.77616 -0.633575,-1.93601 -1.31729,-2.41143 -0.684008,-0.47555 -1.324118,-0.66412 -1.455414,-0.42866 -0.210532,0.37753 0.124033,1.01113 1.210272,2.29089 0.972249,1.14592 1.180746,1.19709 1.045959,1.47623 -0.435436,0.90174 -2.435091,2.37985 -4.175302,2.94055 -1.598323,0.51501 -1.685535,0.0794 -0.3203,-1.6007 0.861079,-1.05967 0.972261,-1.27401 0.971853,-1.87103 -5.79e-4,-0.58306 -0.113054,-0.81379 -0.830743,-1.70554 -0.67717,-0.84138 -0.803054,-1.08705 -0.683407,-1.33482 0.18508,-0.38332 1.50749,-1.12337 2.487246,-1.39189 0.411446,-0.11261 0.858047,-0.30574 0.992515,-0.42892 0.522559,-0.47886 0.859454,-3.11304 0.455434,-3.56084 -0.14092,-0.15615 -0.286526,-0.14789 -0.664489,0.0386 -0.278053,0.13698 -0.961827,0.24007 -1.606237,0.24274 -0.937252,0.004 -1.202135,-0.0592 -1.607975,-0.38009 -0.533782,-0.42203 -0.721709,-0.95774 -0.570172,-1.62692 l 0.09882,-0.43557 0.445984,0.67222 c 0.528237,0.79613 1.49721,1.36291 2.316272,1.35357 0.73112,-0.008 2.257946,-0.74057 2.928004,-1.40514 0.27689,-0.27463 0.772865,-0.87061 1.102014,-1.32461 1.117998,-1.54195 1.533774,-1.95393 2.992217,-1.97914 1.986842,-0.0343 3.295991,0.43695 4.17155,0.16214 0.251461,-0.079 0.504987,-1.77654 0.727289,-2.25471 0.299187,-0.64366 0.550941,-0.9439 0.969367,-1.15661 2.00032,-1.01684 3.95607,-4.64658 3.470797,-6.44176 -0.212769,-0.78713 -0.773253,-1.18173 -1.678409,-1.18173 -0.818832,0 -2.779821,-0.42232 -3.69578,-0.7958 -0.370294,-0.14868 -1.110934,-0.63738 -1.645805,-1.08392 -1.154206,-0.96362 -1.69679,-1.25693 -2.460619,-1.2413 z m 0.105027,0.30482 c 0.458392,0 1.738639,0.72137 2.28491,1.28763 0.486025,0.50379 0.995973,0.82984 1.716736,1.09732 0.90268,0.33499 2.805871,0.76556 3.384937,0.76573 1.413971,4.1e-4 1.815494,0.48751 1.653272,2.00567 -0.110458,1.03387 -0.55665,2.04326 -1.441979,3.26128 -0.964656,1.32719 -1.698487,1.85248 -2.600732,1.85808 -0.657355,-0.12721 -0.638405,-1.25112 -1.251478,-2.00761 -0.705396,-0.87042 -3.507058,-1.30417 -3.735276,0.60631 -0.09299,0.77844 -0.184729,2.83964 2.318598,2.91389 0.359006,0.0107 1.387482,-0.21144 1.812708,-0.46412 l 0.835088,-0.40914 -0.436692,1.00555 c -0.134021,0.3086 -0.317404,1.56003 -0.502662,1.6612 -0.481789,0.26334 -1.971385,-0.0437 -3.566537,-0.15423 -1.940983,-0.13458 -2.385909,0.30713 -3.421048,1.73385 -0.645233,0.88934 -1.019255,1.3314 -1.541522,1.82223 l -0.338223,0.3183 0.257077,-0.76905 c 0.345724,-1.03391 0.163866,-1.66991 -0.497751,-1.74166 -0.391022,-0.0425 -0.560638,0.0719 -1.081853,0.72821 -0.664901,0.83725 -0.823677,1.6628 -0.395465,2.05669 0.122512,0.11255 0.185916,0.27099 0.140891,0.35196 -0.136147,0.2442 -0.999084,0.15881 -1.635849,-0.16185 -0.576703,-0.29039 -1.420825,-1.37745 -1.420825,-1.82993 0,-0.29599 0.496883,-1.04163 1.594289,-2.39211 1.078291,-1.32698 1.397669,-1.9829 1.398925,-2.87346 0.0013,-0.80489 0.515077,-4.03819 0.802863,-5.05234 0.517801,-1.82459 1.402567,-3.10847 3.028555,-4.39447 0.999216,-0.79033 1.934133,-1.22391 2.639064,-1.22391 z m 3.524479,8.39229 c 0.113862,0.16164 0.316117,0.37179 0.433486,0.80101 0.108868,0.21062 0.25076,0.55417 0.396424,0.85388 0.380214,0.6817 0.224193,0.49338 -0.02295,0.75222 -0.520714,0.54536 -2.014991,0.86324 -2.858499,0.54366 -0.993428,-0.37639 -1.989312,-3.24912 -0.02706,-3.59502 0.897973,-0.22127 2.04297,0.56922 2.059099,0.60323 z m -11.790342,1.95927 c 0.123109,10e-4 0.240161,0.0688 0.447228,0.20442 0.869113,0.56903 0.775245,0.85609 -0.791424,2.41527 l -1.120179,1.11466 -0.186422,-0.49896 c -0.310693,-0.83137 -1.080672,-1.08196 -1.551731,-0.50508 -0.140622,0.17223 -0.513378,1.12367 -0.828253,2.11434 -1.036582,3.26123 -1.838698,4.89011 -3.185094,6.46794 -1.683971,1.97357 -3.99248,3.09763 -7.447559,3.62652 v 0.002 c -1.882135,0.28738 -3.662704,0.28473 -5.386134,-0.003 -1.498587,-0.25266 -1.996514,-0.42456 -3.266228,-1.12545 -0.732647,-0.40443 -0.995268,-0.65034 -1.159504,-1.08594 -0.241175,-0.63984 -0.291808,-3.10207 -0.06696,-3.25612 0.07997,-0.0547 0.312965,0.0221 0.517658,0.17071 0.458568,0.33304 0.951318,0.23166 2.177405,-0.44742 0.492719,-0.27289 1.047981,-0.47202 1.233914,-0.4427 0.426816,0.0673 0.735279,0.79027 1.083599,2.54075 0.460275,2.3131 0.534436,2.57032 0.741646,2.57032 0.322353,0 0.384261,-0.39902 0.384261,-2.47542 0,-1.65169 0.0401,-1.98915 0.261822,-2.20149 0.309371,-0.29632 1.938018,-0.7617 3.146267,-0.89897 1.028352,-0.11677 1.089291,-0.0584 2.2772,2.17639 0.910457,1.71281 1.456782,2.57034 1.637592,2.57034 0.353199,0 0.21104,-1.08528 -0.575148,-4.39448 -0.08667,-0.36482 -0.15945,-0.78207 -0.161061,-0.92739 -0.002,-0.14527 0.636162,-0.9162 1.418088,-1.71325 l 1.421819,-1.44928 0.35216,0.30369 c 0.193763,0.16707 0.704773,0.62088 1.135363,1.00849 1.346127,1.21183 1.43118,0.82313 0.226972,-1.03718 l -0.828255,-1.27961 0.304623,-0.69734 c 0.359345,-0.8227 0.381779,-1.09013 0.09157,-1.09013 -0.17607,0 -1.003832,0.64652 -1.283192,1.00214 -0.284588,0.3623 -2.266937,2.1085 -2.897149,2.55208 -1.861816,1.31046 -6.594949,2.03847 -8.684464,1.33591 -0.962495,-0.32359 -2.028108,-0.31526 -2.458632,0.0182 -0.629213,0.4885 -0.500782,0.10788 0.227985,-0.67553 1.709361,-1.83729 4.580044,-3.91157 6.705416,-4.84489 1.137373,-0.49948 2.362307,-0.71489 4.061376,-0.71444 1.736079,5.4e-4 2.20535,0.0756 6.1126,0.97758 0.822878,0.18996 1.773817,0.34658 2.113192,0.34702 0.755938,0.002 1.751549,-0.37251 2.365053,-0.88932 0.252542,-0.21271 0.679725,-0.51274 0.949456,-0.66671 0.230821,-0.13208 0.359939,-0.19792 0.483065,-0.19694 z m 0.652546,2.25144 c 0.121915,0 -0.537201,0.86714 -1.257062,1.65367 v 2.8e-4 c -0.04398,0.0479 -0.229329,0.30262 -0.411638,0.56574 -0.32641,0.47095 -0.3315,0.47219 -0.3315,0.0862 0,-0.26588 0.296313,-0.6993 0.92183,-1.34886 0.506946,-0.52643 0.992171,-0.95718 1.07837,-0.95718 z m -8.609303,0.13655 c 0.0728,0.002 0.01283,0.15103 -0.193614,0.45348 -0.328604,0.48153 -0.284648,0.68877 0.370572,1.75268 0.329791,0.53551 0.573427,0.97373 0.541549,0.97373 -0.03186,0 -0.444545,-0.33281 -0.917098,-0.73952 l -0.859118,-0.73927 -1.552723,1.60017 c -1.116646,1.15086 -1.552729,1.70925 -1.552729,1.98828 0,0.2134 0.207936,1.28036 0.461913,2.37113 0.253975,1.0908 0.43508,2.07159 0.402677,2.17947 -0.0324,0.1078 -0.475829,-0.59503 -0.985541,-1.56158 -1.327494,-2.51725 -1.549328,-2.77689 -2.370776,-2.77689 -1.121003,0 -3.36919,0.6536 -3.792097,1.10253 -0.350038,0.37158 -0.374057,0.50311 -0.374057,2.05145 0,0.90995 -0.0191,1.65467 -0.04207,1.65477 -0.0614,3.1e-4 -0.132955,-0.27944 -0.403426,-1.57534 -0.603565,-2.89158 -1.013081,-3.22216 -2.771213,-2.23846 -0.965902,0.54041 -1.940795,0.65385 -2.235389,0.26039 -0.230851,-0.30828 0.06707,-0.96206 0.788433,-1.73036 0.670836,-0.71451 1.497113,-0.84334 2.734134,-0.42618 1.957862,0.6602 6.489346,0.0974 8.536883,-1.06032 0.49932,-0.28236 2.042608,-1.52126 2.294868,-1.84237 0.04115,-0.0523 0.495635,-0.4939 1.009933,-0.98117 0.502426,-0.47601 0.815287,-0.71863 0.908885,-0.71662 z m 5.39858,0.3608 c 1.170863,0 0.962349,3.56734 -0.380777,6.51512 -0.749597,1.64519 -1.176846,2.19713 -1.875768,2.42354 -0.86522,0.28031 -2.373462,1.19895 -3.564874,2.17172 -0.534871,0.43669 -1.241741,0.92111 -1.570894,1.07634 -1.020283,0.4811 -2.789308,0.8877 -4.649716,1.06857 -2.661883,0.25894 -5.459385,0.086 -6.857477,-0.42337 -0.66329,-0.24174 -2.234017,-1.22212 -2.134597,-1.33231 0.01969,-0.0231 0.639633,0.18586 1.37777,0.4612 1.727602,0.64458 3.551253,0.87128 5.967257,0.74174 3.329186,-0.17858 6.103334,-1.12207 8.088658,-2.7513 1.951484,-1.60144 3.22962,-3.81433 4.406317,-7.62949 0.569441,-1.84618 0.813969,-2.32176 1.194101,-2.32176 z m 5.740776,1.98991 c 0.130628,0 0.282202,0.15679 0.336979,0.34811 0.129166,0.45103 -0.323325,1.76331 -0.681168,1.97561 -0.573105,0.33994 -1.044029,0.0653 -1.044029,-0.60851 0,-0.43428 1.036754,-1.71521 1.388218,-1.71521 z m -28.903997,4.14592 c 0.285244,0 0.311468,0.0632 0.223719,0.53899 -0.374669,2.03154 -0.292255,2.4039 0.887237,4.00991 1.528233,2.08092 2.609158,2.6359 5.723361,2.93883 1.509674,0.14684 2.495421,0.14717 4.114386,3e-4 3.585043,-0.32475 4.946116,-0.83588 7.25817,-2.72586 1.156619,-0.94552 2.72592,-1.78763 2.72592,-1.46279 0,0.0773 -0.286169,0.43265 -0.635876,0.78944 -1.590357,1.62247 -3.743805,2.8559 -6.321406,3.62125 -0.903582,0.26819 -5.11615,0.46077 -6.732791,0.30788 -2.305606,-0.21827 -5.473217,-1.17902 -6.863205,-2.08095 -0.976478,-0.63361 -1.246755,-0.90051 -1.684133,-1.66331 -0.863328,-1.50587 -0.0185,-4.27339 1.3046,-4.27339 z m 0.679921,0.24856 -0.0098,1.6167 c -0.0056,0.88921 -0.02446,1.61698 -0.0418,1.61701 -0.0176,4e-5 -0.106757,-0.30867 -0.198357,-0.68574 -0.129375,-0.53251 -0.119976,-0.89362 0.0418,-1.61672 z m 21.326779,2.73634 c 0.284289,0 0.785047,0.71462 1.277722,1.82337 0.237266,0.53395 0.333252,1.05425 0.336477,1.82466 0.0042,0.98692 -0.03646,1.12826 -0.481572,1.67247 -1.383913,1.69198 -5.220804,4.44103 -7.825101,5.60646 -0.63314,0.28341 -1.378376,0.51504 -1.656258,0.51504 -0.432981,0 -0.505216,-0.0562 -0.505216,-0.39612 0,-0.97468 2.878797,-4.3848 4.823683,-5.71384 0.450932,-0.30788 0.727198,-0.37201 1.421316,-0.32839 0.940917,0.0589 1.303186,-0.19776 0.52712,-0.37346 -0.433562,-0.0979 -1.640672,-1.06477 -1.672687,-1.33923 -0.0069,-0.0599 0.291808,-0.30622 0.663747,-0.54781 0.371953,-0.24174 1.162858,-0.95758 1.757549,-1.59108 0.594695,-0.6335 1.194575,-1.15194 1.33322,-1.15194 z m 5.879655,1.8071 c 0.318184,0.0132 1.096714,0.5492 1.552475,1.19354 0.155154,0.21926 0.330083,0.64114 0.388495,0.93758 0.06286,0.31913 0.0467,0.53898 -0.0393,0.53898 -0.171623,0 -1.749986,-1.85968 -1.976555,-2.32891 -0.11917,-0.24671 -0.0697,-0.34784 0.07489,-0.34119 z m -29.658591,0.68022 c 0.08345,0 0.06734,0.11013 -0.03661,0.24869 -0.102431,0.13691 -0.253706,0.2487 -0.335982,0.2487 -0.08345,0 -0.06734,-0.11014 0.03661,-0.2487 0.102431,-0.1369 0.253676,-0.24869 0.335976,-0.24869 z m 20.027905,1.35216 c 0.08843,0.003 0.198089,0.11012 0.358876,0.30689 0.302442,0.37042 0.310083,0.35263 -0.269789,0.62889 -0.637993,0.30426 -0.627267,0.31616 -0.389736,-0.43911 0.09608,-0.30557 0.169177,-0.46539 0.26406,-0.49268 0.01194,-0.003 0.02387,-0.003 0.03658,-0.003 z" /><path
       style="fill:#004200;fill-opacity:1;fill-rule:evenodd;stroke:#004200;stroke-width:0.632146;stroke-linecap:round;stroke-dasharray:none;stroke-dashoffset:0;stroke-opacity:1;paint-order:markers stroke fill"
       id="path69302-9"
       d="m 68.503333,119.65779 a 0.99518621,1.9635803 0 0 1 -0.504184,2.21167 0.99518621,1.9635803 0 0 1 -1.208557,-0.44145 0.99518621,1.9635803 0 0 1 -0.0695,-2.42121 0.99518621,1.9635803 0 0 1 1.175567,-0.70786 l -0.359301,1.83113 z" /></g></svg>
