<?xml version="1.0" encoding="UTF-8" standalone="no"?>
<!-- Created with Inkscape (http://www.inkscape.org/) -->

<svg
   width="175.97272mm"
   height="64.244118mm"
   viewBox="0 0 175.97272 64.244118"
   version="1.1"
   id="svg5"
   inkscape:version="1.2.1 (1:1.2.1+202210291243+9c6d41e410)"
   sodipodi:docname="drawing1.svg.2022_11_02_20_49_18.0.svg"
   xml:space="preserve"
   xmlns:inkscape="http://www.inkscape.org/namespaces/inkscape"
   xmlns:sodipodi="http://sodipodi.sourceforge.net/DTD/sodipodi-0.dtd"
   xmlns="http://www.w3.org/2000/svg"
   xmlns:svg="http://www.w3.org/2000/svg"><sodipodi:namedview
     id="namedview7"
     pagecolor="#ffffff"
     bordercolor="#000000"
     borderopacity="0.25"
     inkscape:showpageshadow="2"
     inkscape:pageopacity="0.0"
     inkscape:pagecheckerboard="0"
     inkscape:deskcolor="#d1d1d1"
     inkscape:document-units="mm"
     showgrid="false"
     showguides="true"
     inkscape:zoom="0.70710678"
     inkscape:cx="729.7342"
     inkscape:cy="275.77164"
     inkscape:window-width="1920"
     inkscape:window-height="1043"
     inkscape:window-x="3584"
     inkscape:window-y="89"
     inkscape:window-maximized="1"
     inkscape:current-layer="layer1"
     inkscape:lockguides="false" /><defs
     id="defs2"><rect
       x="1914.0068"
       y="716.11487"
       width="570.35059"
       height="93.914307"
       id="rect7995" /></defs><g
     inkscape:label="Layer 1"
     inkscape:groupmode="layer"
     id="layer1"
     transform="translate(-21.60385,-14.74067)"><path
       id="path68767"
       style="fill:#004200;fill-opacity:1;stroke-width:11.7415;stroke-dasharray:none"
       d="m 106.455,14.741736 c -0.22662,0.0042 -0.46271,0.02014 -0.71313,0.04599 -2.01074,0.207477 -4.63752,1.732693 -7.341675,4.262272 -2.013186,1.883217 -3.577389,4.491552 -4.371826,7.290511 -0.575264,2.026804 -1.414384,7.003207 -1.414384,8.388119 0,1.289797 -0.162642,1.337409 -1.102775,0.322977 -1.185679,-1.279187 -2.123619,-1.314446 -3.959965,-0.147794 -4.126528,2.621619 -5.236085,2.828662 -9.865548,1.83813 -10.931203,-2.338842 -14.231555,-2.572362 -19.024678,-1.34462 -7.005143,1.794314 -16.326363,8.204103 -20.280933,13.945918 -1.074996,1.560879 -1.169883,1.621598 -2.290299,1.471228 -1.019949,-0.136775 -1.304656,-0.02084 -2.235523,0.910022 -1.858601,1.858586 -2.41652,5.313237 -1.232999,7.633126 0.844596,1.655539 2.44824,2.951497 5.4715,4.421436 2.566249,1.24774 3.242085,1.457431 8.232573,2.556433 4.150084,0.914052 15.49851,0.994764 18.795235,0.133842 2.962888,-0.773755 4.665398,-1.355662 6.409945,-2.190564 l 1.474328,-0.705383 -0.190686,0.953946 c -0.238148,1.190739 -0.633667,1.591164 -2.146639,2.172478 -4.136745,1.589477 -12.701487,2.039695 -19.803442,1.04128 -0.450715,-0.06335 -0.704129,0.262593 -1.091406,1.403015 -0.643161,1.893874 -2.760545,4.637565 -4.355807,5.644617 -0.680359,0.429485 -2.074431,1.01407 -3.098002,1.298628 -1.746908,0.485897 -2.028717,0.484153 -4.594035,-0.02532 -4.031222,-0.800605 -8.796879,-3.156965 -8.796879,-4.349605 0,-0.614647 2.009071,-1.697108 4.231266,-2.279965 2.450203,-0.642625 5.798266,-0.209912 6.537069,0.84491 0.486278,0.694252 1.347721,0.872885 1.347721,0.27957 0,-0.200147 -0.228875,-0.61654 -0.508496,-0.925525 -0.426262,-0.471017 -0.458058,-0.817009 -0.19637,-2.140438 0.374922,-1.896184 -0.06269,-2.603809 -1.402499,-2.267562 -1.754031,0.411038 -7.922801,0.668 -8.475035,-0.187915 -0.798453,-0.931685 -0.939456,-1.018845 0.737087,-1.584703 1.638358,-0.687366 2.677728,-1.995674 2.15586,-2.517559 -0.510759,-0.510757 -1.48322,-0.03604 -2.710945,1.322916 -1.161289,1.2854 -2.474954,1.615556 -4.904989,2.122501 -0.0087,0.02623 0.01153,-0.02621 -6.56e-4,0.0014 -0.09723,0.208669 -0.05363,0.210717 -0.08805,0.418893 0.747294,-0.06347 1.257339,-0.09099 1.794903,-0.166889 2.179471,-0.557247 1.456729,-0.72268 2.216934,0.583604 0.719262,0.836495 0.931396,0.896837 3.510897,0.990637 1.509975,0.05482 3.553472,-0.02951 4.541325,-0.187586 0.990965,-0.15953 1.869844,-0.169774 1.960604,-0.02274 0.09043,0.146327 0.06833,0.906617 -0.04909,1.689302 -0.190069,1.267439 -0.285145,1.401225 -0.872815,1.224215 -1.688708,-0.508397 -4.44533,-0.525231 -6.096785,-0.03721 -2.445869,0.722765 -4.174212,1.773218 -4.294312,2.60966 -0.360211,2.508762 9.122405,6.331237 13.452926,5.422925 0.935466,-0.196187 2.228158,-0.604702 2.872693,-0.907439 1.730132,-0.812695 4.294553,-3.522779 5.29115,-5.591906 l 0.874365,-1.814877 1.697054,0.15503 c 5.672737,0.519185 16.082013,-0.212065 18.056262,-1.268657 0.922472,-0.493695 1.068834,-0.288953 0.261483,0.365869 -0.427149,0.34642 -1.947451,1.774768 -3.378605,3.173967 -3.905092,3.817951 -5.43146,6.502182 -4.325834,7.607804 v -0.0015 c 0.472133,0.473835 2.43743,0.483749 3.573425,0.01964 8.869648,-3.623871 18.687992,-10.569049 19.185392,-13.571265 0.103957,-0.627425 0.05248,-1.85105 -0.114205,-2.719214 -0.358053,-1.864557 -2.302699,-5.279726 -3.310392,-5.813081 l -0.709001,-0.375171 1.209746,-2.007113 c 0.665202,-1.104022 1.508654,-2.745647 1.874821,-3.647839 l 0.666109,-1.64021 0.577742,0.734322 c 0.317833,0.404045 1.093655,0.979645 1.724443,1.278992 1.501955,0.712715 4.783234,0.734713 5.844604,0.03927 0.423751,-0.277717 0.915046,-0.504879 1.091923,-0.504879 0.445265,0 0.365454,3.321258 -0.111621,4.641577 -0.340138,0.941405 -0.62426,1.146474 -2.38435,1.724959 -3.742937,1.230112 -5.880778,2.61803 -5.880778,3.816822 0,0.320095 0.36823,0.920555 0.818554,1.334802 1.395042,1.283192 2.598808,3.137753 2.598808,4.004407 0,0.582335 -0.599773,1.494256 -2.019515,3.070613 -2.242332,2.489671 -2.561222,3.540885 -1.254704,4.136182 1.818587,0.828605 8.544434,-2.134689 10.864454,-4.786788 l 1.354439,-1.548743 1.662948,0.565857 c 3.39308,1.154422 9.83275,0.658234 21.07985,-1.62419 2.99013,-0.606785 6.41535,-1.286162 7.61142,-1.510502 1.19604,-0.22426 3.64231,-0.691751 5.43636,-1.038696 5.6878,-1.099892 7.21774,-1.357288 10.7177,-1.801958 7.20284,-0.914192 10.98702,-1.103562 18.79523,-0.936377 7.93113,0.16989 10.66562,0.478911 16.51682,1.866553 2.36599,0.561107 9.31618,3.015043 10.04487,3.297473 0.78205,0.254377 2.82671,0.9568 2.82671,0.618543 0,-0.374875 -2.27307,-1.172681 -6.2818,-2.621521 -8.83031,-3.191466 -18.37554,-4.387562 -30.8901,-3.870565 -5.86129,0.242127 -7.95494,0.471075 -16.91422,1.847432 -1.02517,0.1575 -5.42894,1.003986 -9.78596,1.881023 -7.67272,1.544437 -9.94981,1.981277 -15.5329,2.980179 -1.45234,0.259877 -4.65292,0.545737 -7.11223,0.636137 -3.72262,0.136527 -4.7764,0.07208 -6.29109,-0.386539 -1.767775,-0.535217 -1.819529,-0.582052 -1.819529,-1.639694 0,-1.4541 -1.315483,-3.626961 -2.735234,-4.517553 -1.420249,-0.890902 -2.749415,-1.244192 -3.022038,-0.803052 -0.437121,0.707262 0.258064,1.894187 2.513542,4.291728 2.01849,2.146702 2.303528,2.582808 2.023649,3.105753 -0.904136,1.689374 -4.908548,4.118245 -8.52196,5.168677 -3.318802,0.964802 -3.499876,0.148664 -0.665076,-2.998783 1.787972,-1.985184 2.018815,-2.386721 2.017965,-3.505213 -0.0012,-1.092252 -0.234755,-1.524615 -1.72496,-3.195154 -1.406094,-1.576197 -1.666955,-2.036417 -1.418518,-2.500622 0.384317,-0.718095 3.129639,-2.104556 5.164026,-2.607593 0.854335,-0.21125 1.782167,-0.57257 2.061373,-0.803568 1.085059,-0.897114 1.78459,-5.831999 0.945679,-6.670911 -0.292553,-0.29254 -0.595455,-0.276706 -1.380278,0.07235 -0.577326,0.256637 -1.997131,0.449752 -3.335197,0.454752 -1.946131,0.0064 -2.496117,-0.111024 -3.338814,-0.712101 -1.108358,-0.790612 -1.498041,-1.794224 -1.18339,-3.047876 l 0.204638,-0.815971 0.926042,1.259355 c 1.096845,1.491479 3.109317,2.553263 4.810042,2.535763 1.518109,-0.01467 4.687906,-1.386889 6.079216,-2.631881 0.574941,-0.514487 1.604789,-1.631527 2.288232,-2.482019 2.32144,-2.888706 3.19878,-3.412564 6.21306,-3.707784 3.99926,-0.391697 7.71761,-1.140843 8.52919,-1.718758 0.44206,-0.314737 1.18121,-1.305073 1.6428,-2.2009 0.62132,-1.205827 1.14449,-1.768824 2.01331,-2.167309 4.1535,-1.904947 8.2139,-8.704903 7.20628,-12.067997 -0.4418,-1.474589 -1.60507,-2.213819 -3.48454,-2.213819 -1.70023,0 -5.77256,-0.790673 -7.67447,-1.490348 -0.76888,-0.282877 -2.30623,-1.19899 -3.41684,-2.035535 -2.39687,-1.805434 -3.52345,-2.354847 -5.10977,-2.325439 z m 0.21756,0.569991 c 0.95192,0 3.61013,1.351941 4.74441,2.412773 1.00918,0.943792 2.06805,1.554096 3.56464,2.055171 1.87433,0.627577 5.82665,1.434208 7.02903,1.434538 2.93598,7.6e-4 3.76971,0.913307 3.43287,3.757393 -0.22939,1.936867 -1.15636,3.827861 -2.99465,6.109705 -2.00312,2.486429 -3.52616,3.470941 -5.39967,3.481441 -1.76828,0.01213 -2.79041,-0.604537 -4.07469,-2.457731 -0.48036,-0.693135 -1.06404,-1.259871 -1.29708,-1.259871 -1.05114,0 -0.0555,3.239119 1.33067,4.329451 0.46076,0.362437 1.43023,0.807811 2.15439,0.990121 l 1.31672,0.331762 -0.59325,1.00459 c -0.32607,0.552627 -0.90723,1.160249 -1.29191,1.349789 -1.00038,0.493345 -3.67904,1.005156 -6.91689,1.321366 -4.01905,0.392527 -4.98042,0.870107 -7.1298,3.542936 -1.33977,1.666047 -2.116385,2.49474 -3.200837,3.414262 l -0.7028,0.595829 0.533818,-1.440739 c 0.71786,-1.936914 0.340748,-3.12843 -1.033012,-3.26285 -0.811915,-0.07946 -1.16463,0.134766 -2.246891,1.364258 -1.380625,1.568469 -1.710289,3.11558 -0.821139,3.853512 0.254424,0.21114 0.386059,0.507104 0.292489,0.658874 -0.282695,0.457407 -2.07449,0.297853 -3.396692,-0.302824 -1.197475,-0.543995 -2.950208,-2.581056 -2.950208,-3.428731 0,-0.554505 1.031703,-1.951381 3.310393,-4.48138 2.23899,-2.485944 2.902132,-3.71427 2.904732,-5.382617 0.0026,-1.507879 1.069501,-7.565162 1.667082,-9.465056 1.075157,-3.418244 2.912806,-5.823905 6.289025,-8.233089 2.07487,-1.480607 4.01553,-2.292883 5.47925,-2.292883 z m 5.46581,17.232023 c 0.14694,-0.01671 0.54626,0.332509 1.08521,1.011825 0.31442,0.396275 1.0831,0.991036 1.70842,1.321366 1.0335,0.545832 1.06668,0.599614 0.3607,0.604614 -0.98984,0.005 -2.36446,-1.016303 -2.98586,-2.217952 -0.24447,-0.472738 -0.28275,-0.70686 -0.16847,-0.719853 z m -22.629105,2.160592 c 0.255653,0.0019 0.49915,0.129436 0.929142,0.383439 1.804647,1.066022 1.609234,1.603829 -1.643827,4.524788 l -2.325439,2.088245 -0.387574,-0.935344 c -0.645133,-1.557447 -2.243902,-2.027007 -3.222025,-0.946195 -0.291977,0.32266 -1.065974,2.105131 -1.719792,3.960998 -2.152385,6.109582 -3.81786,9.161101 -6.61355,12.11709 -3.496641,3.697193 -8.289443,5.803029 -15.463655,6.793901 v 0.0026 c -3.908111,0.538095 -7.605243,0.535925 -11.183814,-0.0088 -3.111696,-0.473617 -4.145561,-0.795377 -6.782015,-2.108399 -1.521294,-0.757635 -2.067099,-1.218339 -2.408121,-2.034501 -0.500778,-1.198502 -0.605381,-5.811316 -0.138493,-6.099886 0.166045,-0.102587 0.649314,0.04139 1.074353,0.319877 0.95218,0.623897 1.97582,0.434507 4.521688,-0.837675 1.023114,-0.511265 2.176042,-0.884823 2.562117,-0.829923 0.886252,0.12605 1.526207,1.48054 2.249475,4.759916 0.955729,4.333288 1.109707,4.81521 1.539958,4.81521 0.669341,0 0.797884,-0.747475 0.797884,-4.637443 0,-3.094279 0.0838,-3.726468 0.544153,-4.124296 0.642382,-0.555147 4.023571,-1.426433 6.532418,-1.683618 2.135289,-0.21885 2.261795,-0.109925 4.728393,4.076753 1.890498,3.208836 3.024878,4.81521 3.400309,4.81521 0.733395,0 0.438697,-2.033037 -1.193725,-8.232572 -0.179939,-0.683432 -0.331563,-1.465155 -0.334863,-1.737362 -0.0041,-0.27208 1.320909,-1.716416 2.944523,-3.209623 l 2.952274,-2.71508 0.731739,0.568958 c 0.402346,0.312975 1.46287,1.163138 2.356962,1.88929 2.795127,2.270224 2.971732,1.542029 0.471289,-1.943034 l -1.719792,-2.396753 0.63252,-1.306897 c 0.746157,-1.541337 0.792721,-2.041736 0.190169,-2.041736 -0.365634,0 -2.084352,1.210682 -2.664437,1.876889 -0.590938,0.678715 -4.707066,3.950101 -6.015654,4.781103 -3.865924,2.455011 -13.693774,3.81886 -18.032491,2.50269 -1.998545,-0.606214 -4.211171,-0.590987 -5.105114,0.03514 -1.30653,0.915145 -1.039341,0.201921 0.473873,-1.265556 3.549361,-3.442056 9.510011,-7.327872 13.923181,-9.076449 2.361672,-0.935702 4.904573,-1.339259 8.43256,-1.338419 3.604832,10e-4 4.579138,0.141655 12.692248,1.831412 1.708648,0.355867 3.683153,0.64925 4.387846,0.65009 1.569647,0.0036 3.636911,-0.697348 4.910812,-1.665532 0.524337,-0.398485 1.411377,-0.960569 1.971456,-1.249019 0.479275,-0.247448 0.747386,-0.371348 1.003039,-0.369486 z m 1.355473,4.21783 c 0.253112,0 -1.115966,1.624455 -2.610693,3.098002 v 5.17e-4 c -0.09132,0.09005 -0.475652,0.566967 -0.854212,1.059884 -0.677768,0.882262 -0.68833,0.884559 -0.68833,0.161747 0,-0.498137 0.614765,-1.310069 1.913578,-2.526978 1.052635,-0.986195 2.060662,-1.793172 2.239657,-1.793172 z M 72.987793,39.17797 c 0.151162,0.0029 0.02708,0.282901 -0.401526,0.849561 -0.682324,0.902102 -0.591581,1.29088 0.768945,3.284037 0.68479,1.003212 1.191186,1.823661 1.124996,1.823661 -0.0662,0 -0.923567,-0.623006 -1.904793,-1.384928 l -1.78387,-1.385445 -3.224093,2.99775 c -2.318626,2.156104 -3.223576,3.202122 -3.223576,3.724837 0,0.399807 0.431215,2.398642 0.958598,4.442106 0.527378,2.043484 0.903921,3.880865 0.836641,4.082955 -0.06732,0.201887 -0.988525,-1.114686 -2.046903,-2.925403 -2.756436,-4.715883 -3.217023,-5.202266 -4.922697,-5.202266 -2.327673,0 -6.9958,1.224475 -7.873938,2.065507 -0.726821,0.696095 -0.77618,0.942547 -0.77618,3.843176 0,1.704717 -0.03981,3.099879 -0.08785,3.100069 -0.127495,5.3e-4 -0.276013,-0.52352 -0.837675,-2.951241 -1.253261,-5.417098 -2.103535,-6.036376 -5.754171,-4.193542 -2.005625,1.012415 -4.029352,1.225414 -4.64106,0.488342 -0.479304,-0.577525 0.139321,-1.802802 1.637109,-3.242179 1.392937,-1.338592 3.108595,-1.579398 5.677173,-0.797884 4.065354,1.23689 13.47398,0.182025 17.725533,-1.986959 1.036801,-0.528927 4.241292,-2.849934 4.765084,-3.451469 0.08543,-0.0981 1.029128,-0.925269 2.09703,-1.838131 1.043253,-0.891797 1.692872,-1.346319 1.887223,-1.342554 z m 11.209652,0.675928 c 2.43121,0 1.998252,6.683 -0.79065,12.205457 -1.556485,3.082096 -2.443087,4.116091 -3.894336,4.540291 -1.796563,0.525155 -4.928262,2.246147 -7.402132,4.068486 -1.110623,0.818112 -2.578353,1.725617 -3.261816,2.016414 -2.118547,0.901352 -5.792232,1.663078 -9.655225,2.001945 -5.527193,0.484815 -11.335883,0.161239 -14.238924,-0.793233 -1.377263,-0.452817 -4.638723,-2.289452 -4.432288,-2.495972 0.04086,-0.04088 1.328642,0.348053 2.861324,0.86403 3.587232,1.207642 7.373819,1.632279 12.390459,1.389579 6.912813,-0.334385 12.672991,-2.102021 16.795357,-5.154207 4.05211,-3.000196 6.705465,-7.145891 9.148795,-14.293185 1.182394,-3.458734 1.690123,-4.349605 2.479436,-4.349605 z m 11.920202,3.727938 c 0.271234,0 0.586442,0.29369 0.700216,0.652157 0.268184,0.844972 -0.671354,3.303389 -1.414384,3.701066 -1.190005,0.636845 -2.168343,0.122569 -2.168343,-1.139983 0,-0.813572 2.152669,-3.21324 2.882511,-3.21324 z m -60.016491,7.766968 c 0.592335,0 0.646738,0.118552 0.464571,1.009757 -0.777975,3.805868 -0.606888,4.503417 1.842265,7.512203 3.173256,3.898331 5.417625,4.938082 11.884029,5.505607 3.134726,0.275037 5.181996,0.275244 8.543664,5.17e-4 7.444068,-0.608345 10.269598,-1.565944 15.070398,-5.106665 2.401643,-1.771267 5.66012,-3.348968 5.66012,-2.740401 0,0.144857 -0.594164,0.810584 -1.320333,1.478979 -3.302258,3.039486 -7.773617,5.350315 -13.125814,6.784082 -1.876227,0.502657 -10.622675,0.863171 -13.979508,0.576193 -4.787405,-0.409297 -11.365123,-2.208762 -14.251327,-3.898471 -2.027576,-1.187067 -2.588766,-1.686888 -3.496944,-3.116088 -1.792635,-2.821018 -0.03829,-8.005713 2.708879,-8.005713 z m 1.4118,0.465604 -0.02067,3.028756 c -0.0115,1.665817 -0.0507,3.029183 -0.08682,3.029273 -0.03613,7e-5 -0.221108,-0.578133 -0.411345,-1.284677 -0.268603,-0.997555 -0.249606,-1.674065 0.0863,-3.028755 z m 44.283602,5.126302 c 0.590292,0 1.630065,1.338679 2.653068,3.415813 0.49265,1.000305 0.691965,1.975137 0.698665,3.418396 0.0087,1.848854 -0.07573,2.11365 -0.999939,3.133142 -2.873596,3.169786 -10.840479,8.319831 -16.248104,10.503235 -1.314657,0.530785 -2.862579,0.964799 -3.439583,0.964799 -0.899045,0 -1.049032,-0.105789 -1.049032,-0.742074 0,-1.825937 5.978045,-8.214477 10.016443,-10.704256 0.936331,-0.577277 1.509947,-0.696966 2.951241,-0.615466 1.953743,0.110638 2.705954,-0.370141 1.094507,-0.699699 -0.900259,-0.184117 -3.406703,-1.994766 -3.473173,-2.508891 -0.01447,-0.11193 0.605358,-0.573689 1.377694,-1.026294 0.772325,-0.452597 2.414554,-1.793875 3.649389,-2.980697 1.234831,-1.186822 2.480945,-2.158008 2.768824,-2.158008 z m 12.20804,3.385324 c 0.660686,0.02721 2.277738,1.028978 3.224093,2.236039 0.322176,0.410945 0.68486,1.201145 0.806152,1.756482 0.130531,0.597705 0.09707,1.009757 -0.08165,1.009757 -0.356413,0 -3.633683,-3.483996 -4.104142,-4.363041 -0.247432,-0.462322 -0.144767,-0.651608 0.155547,-0.639237 z m -61.583321,1.27434 c 0.173255,0 0.139775,0.206175 -0.07597,0.466122 -0.212713,0.25613 -0.840045,0.569084 -0.995546,0.639908 -0.289382,0.131802 3.38e-4,-0.3943 0.339225,-0.666626 0.247947,-0.216775 0.561419,-0.439404 0.732291,-0.439404 z m 41.510128,2.540931 c 0.197069,-0.05111 0.439606,0.145795 0.821138,0.567407 0.628001,0.693905 0.643862,0.660617 -0.560172,1.178222 -1.324754,0.569537 -1.302474,0.592129 -0.809253,-0.822688 0.199501,-0.572287 0.351216,-0.871836 0.548287,-0.922941 z"
       sodipodi:nodetypes="ccssscsccccssscsccccscscssccssccccssccccccccccsscccccscccccscccccccccsscscssscccsccccscssssscccssccsssccsscscccccccscscscssscccscccsscssscccccscccssscssscscsssccssssccccsccccssccsccssscsscccccccccscscccccscscssscccscscssscccssccssscscsccssscssssccsssccsssscssscscssscccccscccsccsscccssscsssssssssssscscssccss"
       inkscape:export-filename="../Desktop/Senioren-Treff-Full-Stack-MERN-Gruppen-Projekt/Pictures/logo.png"
       inkscape:export-xdpi="500"
       inkscape:export-ydpi="500" /><path
       style="fill:#004200;fill-opacity:1;fill-rule:evenodd;stroke:#004200;stroke-width:0.618781;stroke-linecap:round;stroke-dasharray:none;stroke-dashoffset:0;stroke-opacity:1;paint-order:markers stroke fill"
       id="path69302"
       sodipodi:type="arc"
       sodipodi:cx="108.34645"
       sodipodi:cy="22.242668"
       sodipodi:rx="1.4883307"
       sodipodi:ry="0.98363978"
       sodipodi:start="6.0402834"
       sodipodi:end="5.0817707"
       sodipodi:arc-type="slice"
       d="m 109.79109,22.006083 a 1.4883307,0.98363978 0 0 1 -0.75402,1.107917 1.4883307,0.98363978 0 0 1 -1.80743,-0.22114 1.4883307,0.98363978 0 0 1 -0.10394,-1.212889 1.4883307,0.98363978 0 0 1 1.7581,-0.354597 l -0.53735,0.917294 z" /><g
       id="g69412"
       transform="matrix(1.3457312,0,0,1.4799977,-105.09389,-240.64974)"
       style="stroke-width:0.850299;stroke-dasharray:none"><g
         id="g5723"
         transform="matrix(0.92938561,0,0,0.92938561,10.811304,13.577399)"
         style="stroke-width:0.914904;stroke-dasharray:none"><text
           xml:space="preserve"
           style="font-style:normal;font-variant:normal;font-weight:normal;font-stretch:normal;font-size:17.7396px;font-family:Dyuthi;-inkscape-font-specification:'Dyuthi, Normal';font-variant-ligatures:normal;font-variant-caps:normal;font-variant-numeric:normal;font-variant-east-asian:normal;white-space:pre;inline-size:98.7955;display:inline;fill:#008000;fill-opacity:0.999023;fill-rule:evenodd;stroke:#004200;stroke-width:1.03121;stroke-linecap:round;stroke-dasharray:none;stroke-dashoffset:0;stroke-opacity:1;paint-order:markers stroke fill"
           x="297.22736"
           y="246.60834"
           id="text69358"
           transform="matrix(0.85829807,-0.12458848,0.10933037,0.90123393,-92.893481,18.139741)"><tspan
             x="297.22736"
             y="246.60834"
             id="tspan24122"><tspan
               style="font-size:14.4639px"
               id="tspan24120">e</tspan></tspan></text><text
           xml:space="preserve"
           style="font-style:normal;font-variant:normal;font-weight:normal;font-stretch:normal;font-size:17.7396px;font-family:Dyuthi;-inkscape-font-specification:'Dyuthi, Normal';font-variant-ligatures:normal;font-variant-caps:normal;font-variant-numeric:normal;font-variant-east-asian:normal;white-space:pre;inline-size:98.7955;display:inline;fill:#008000;fill-opacity:0.999023;fill-rule:evenodd;stroke:#004200;stroke-width:1.03121;stroke-linecap:round;stroke-dasharray:none;stroke-dashoffset:0;stroke-opacity:1;paint-order:markers stroke fill"
           x="297.22736"
           y="246.60834"
           id="text69358-78"
           transform="matrix(0.84715266,-0.17674232,0.17567641,0.89251822,-110.35122,36.49506)"><tspan
             x="297.22736"
             y="246.60834"
             id="tspan24126"><tspan
               style="font-size:14.4639px"
               id="tspan24124">r</tspan></tspan></text><text
           xml:space="preserve"
           style="font-style:normal;font-variant:normal;font-weight:normal;font-stretch:normal;font-size:17.7396px;font-family:Dyuthi;-inkscape-font-specification:'Dyuthi, Normal';font-variant-ligatures:normal;font-variant-caps:normal;font-variant-numeric:normal;font-variant-east-asian:normal;white-space:pre;inline-size:98.7955;display:inline;fill:#008000;fill-opacity:0.999023;fill-rule:evenodd;stroke:#004200;stroke-width:1.03121;stroke-linecap:round;stroke-dasharray:none;stroke-dashoffset:0;stroke-opacity:1;paint-order:markers stroke fill"
           x="297.22736"
           y="246.60834"
           id="text69358-4"
           transform="matrix(0.83198116,-0.22869256,0.24198953,0.87959618,-129.27425,56.451502)"><tspan
             x="297.22736"
             y="246.60834"
             id="tspan24130"><tspan
               style="font-size:14.4639px"
               id="tspan24128">o</tspan></tspan></text><text
           xml:space="preserve"
           style="font-style:normal;font-variant:normal;font-weight:normal;font-stretch:normal;font-size:17.7396px;font-family:Dyuthi;-inkscape-font-specification:'Dyuthi, Normal';font-variant-ligatures:normal;font-variant-caps:normal;font-variant-numeric:normal;font-variant-east-asian:normal;white-space:pre;inline-size:98.7955;display:inline;fill:#008000;fill-opacity:0.999023;fill-rule:evenodd;stroke:#004200;stroke-width:1.03121;stroke-linecap:round;stroke-dasharray:none;stroke-dashoffset:0;stroke-opacity:1;paint-order:markers stroke fill"
           x="297.22736"
           y="246.60834"
           id="text69358-50"
           transform="matrix(0.83832738,-0.20865332,0.21638252,0.88509542,-128.39745,49.684036)"><tspan
             x="297.22736"
             y="246.60834"
             id="tspan24134"><tspan
               style="font-size:14.4639px"
               id="tspan24132">i</tspan></tspan></text><g
           id="g7045"
           transform="translate(-0.70493113,0.26776466)"
           style="stroke-width:0.914904;stroke-dasharray:none"><text
             xml:space="preserve"
             style="font-style:normal;font-variant:normal;font-weight:normal;font-stretch:normal;font-size:17.7396px;font-family:Dyuthi;-inkscape-font-specification:'Dyuthi, Normal';font-variant-ligatures:normal;font-variant-caps:normal;font-variant-numeric:normal;font-variant-east-asian:normal;white-space:pre;inline-size:98.7955;display:inline;fill:#008000;fill-opacity:1;fill-rule:evenodd;stroke:#000000;stroke-width:1.03121;stroke-linecap:round;stroke-dasharray:none;stroke-dashoffset:0;stroke-opacity:1;paint-order:markers stroke fill"
             x="297.22736"
             y="246.60834"
             id="text69358-5"
             transform="matrix(0.86345469,-0.05547781,0.05264309,0.90824468,-73.05092,-5.1639738)"><tspan
               x="297.22736"
               y="246.60834"
               id="tspan24138"><tspan
                 style="font-size:14.4639px;stroke:#004200"
                 id="tspan24136">n</tspan></tspan></text><g
             id="g7074"
             transform="matrix(0.84894909,0.17272789,-0.16405589,0.89382464,-99.379289,-18.648663)"
             style="stroke-width:1.03121;stroke-dasharray:none"><text
               xml:space="preserve"
               style="font-style:normal;font-variant:normal;font-weight:normal;font-stretch:normal;font-size:17.7396px;font-family:Dyuthi;-inkscape-font-specification:'Dyuthi, Normal';font-variant-ligatures:normal;font-variant-caps:normal;font-variant-numeric:normal;font-variant-east-asian:normal;white-space:pre;inline-size:98.7955;display:inline;fill:#000000;fill-opacity:0;fill-rule:evenodd;stroke:#000000;stroke-width:1.03121;stroke-linecap:round;stroke-dasharray:none;stroke-dashoffset:0;stroke-opacity:1;paint-order:markers stroke fill"
               x="297.22736"
               y="246.60834"
               id="text69358-2"
               transform="matrix(0.98640387,-0.1671701,0.16701338,0.98547906,55.203458,-21.514102)"><tspan
                 x="297.22736"
                 y="246.60834"
                 id="tspan24142"><tspan
                   style="font-size:16.9333px;fill:#008000;fill-opacity:0.939698;stroke:#004200"
                   id="tspan24140">t</tspan></tspan></text></g><g
             id="g7103"
             transform="matrix(0.83842794,0.22251863,-0.21134682,0.88274735,-73.84619,-34.64124)"
             style="stroke-width:1.03121;stroke-dasharray:none"><text
               xml:space="preserve"
               style="font-style:normal;font-variant:normal;font-weight:normal;font-stretch:normal;font-size:17.7396px;font-family:Dyuthi;-inkscape-font-specification:'Dyuthi, Normal';font-variant-ligatures:normal;font-variant-caps:normal;font-variant-numeric:normal;font-variant-east-asian:normal;white-space:pre;inline-size:98.7955;display:inline;fill:#000000;fill-opacity:0;fill-rule:evenodd;stroke:#000000;stroke-width:1.03121;stroke-linecap:round;stroke-dasharray:none;stroke-dashoffset:0;stroke-opacity:1;paint-order:markers stroke fill"
               x="297.22736"
               y="246.60834"
               id="text69358-8"
               transform="matrix(0.98640387,-0.1671701,0.16701338,0.98547906,45.849024,-20.578658)"><tspan
                 x="297.22736"
                 y="246.60834"
                 id="tspan24146"><tspan
                   style="font-size:14.4639px;fill:#008000;fill-opacity:1;stroke:#004200"
                   id="tspan24144">r</tspan></tspan></text></g><g
             id="g7132"
             transform="matrix(0.80806778,0.32392414,-0.30766113,0.85078233,-49.61719,-61.252075)"
             style="stroke-width:1.03121;stroke-dasharray:none"><text
               xml:space="preserve"
               style="font-style:normal;font-variant:normal;font-weight:normal;font-stretch:normal;font-size:17.7396px;font-family:Dyuthi;-inkscape-font-specification:'Dyuthi, Normal';font-variant-ligatures:normal;font-variant-caps:normal;font-variant-numeric:normal;font-variant-east-asian:normal;white-space:pre;inline-size:98.7955;display:inline;fill:#000000;fill-opacity:0;fill-rule:evenodd;stroke:#000000;stroke-width:1.03121;stroke-linecap:round;stroke-dasharray:none;stroke-dashoffset:0;stroke-opacity:1;paint-order:markers stroke fill"
               x="297.22736"
               y="246.60834"
               id="text69358-9"
               transform="matrix(0.98640387,-0.1671701,0.16701338,0.98547906,52.608809,-30.496044)"><tspan
                 x="297.22736"
                 y="246.60834"
                 id="tspan24150"><tspan
                   style="font-size:14.4639px;fill:#008000;fill-opacity:1;stroke:#004200"
                   id="tspan24148">e</tspan></tspan></text></g><g
             id="g7161"
             transform="matrix(0.77531488,0.41067616,-0.38309532,0.8123416,-9.2604798,-92.708883)"
             style="stroke-width:1.03121;stroke-dasharray:none"><text
               xml:space="preserve"
               style="font-style:normal;font-variant:normal;font-weight:normal;font-stretch:normal;font-size:17.7396px;font-family:Dyuthi;-inkscape-font-specification:'Dyuthi, Normal';font-variant-ligatures:normal;font-variant-caps:normal;font-variant-numeric:normal;font-variant-east-asian:normal;white-space:pre;inline-size:98.7955;display:inline;fill:#000000;fill-opacity:0;fill-rule:evenodd;stroke:#000000;stroke-width:1.03121;stroke-linecap:round;stroke-dasharray:none;stroke-dashoffset:0;stroke-opacity:0.995789;paint-order:markers stroke fill"
               x="297.22736"
               y="246.60834"
               id="text69358-7"
               transform="matrix(0.98640387,-0.1671701,0.16701338,0.98547906,45.775052,-20.313178)"><tspan
                 x="297.22736"
                 y="246.60834"
                 id="tspan24154"><tspan
                   style="font-size:14.4639px;fill:#008000;fill-opacity:0.966543;stroke:#004200"
                   id="tspan24152">ff</tspan></tspan></text></g><text
             xml:space="preserve"
             transform="matrix(0.18381302,0,0,0.16713737,84.226195,60.358939)"
             id="text7993"
             style="font-style:normal;font-variant:normal;font-weight:normal;font-stretch:normal;font-size:54.6667px;font-family:Dyuthi;-inkscape-font-specification:'Dyuthi, Normal';font-variant-ligatures:normal;font-variant-caps:normal;font-variant-numeric:normal;font-variant-east-asian:normal;white-space:pre;shape-inside:url(#rect7995);display:inline;fill:#008000;fill-opacity:0.966543;stroke:#000000;stroke-width:5.21976;stroke-dasharray:none;stroke-opacity:0" /></g><text
           xml:space="preserve"
           style="font-style:normal;font-variant:normal;font-weight:normal;font-stretch:normal;font-size:17.7396px;font-family:Dyuthi;-inkscape-font-specification:'Dyuthi, Normal';font-variant-ligatures:normal;font-variant-caps:normal;font-variant-numeric:normal;font-variant-east-asian:normal;white-space:pre;inline-size:98.7955;display:inline;fill:#008000;fill-opacity:0.999023;fill-rule:evenodd;stroke:#004200;stroke-width:1.03121;stroke-linecap:round;stroke-dasharray:none;stroke-dashoffset:0;stroke-opacity:1;paint-order:markers stroke fill"
           x="297.22736"
           y="246.60834"
           id="text69358-3"
           transform="matrix(0.84392532,-0.18907727,0.19140082,0.88984071,-131.28977,43.951234)"><tspan
             x="297.22736"
             y="246.60834"
             id="tspan24158"><tspan
               style="font-size:14.4639px"
               id="tspan24156">n</tspan></tspan></text><text
           xml:space="preserve"
           style="font-style:normal;font-variant:normal;font-weight:normal;font-stretch:normal;font-size:17.7396px;font-family:Dyuthi;-inkscape-font-specification:'Dyuthi, Normal';font-variant-ligatures:normal;font-variant-caps:normal;font-variant-numeric:normal;font-variant-east-asian:normal;white-space:pre;inline-size:98.7955;display:inline;fill:#008000;fill-opacity:0.999023;fill-rule:evenodd;stroke:#004200;stroke-width:1.03121;stroke-linecap:round;stroke-dasharray:none;stroke-dashoffset:0;stroke-opacity:1;paint-order:markers stroke fill"
           x="297.22736"
           y="246.60834"
           id="text69358-6"
           transform="matrix(0.84649583,-0.17932545,0.17896828,0.89197733,-135.8019,41.636331)"><tspan
             x="297.22736"
             y="246.60834"
             id="tspan24162"><tspan
               style="font-size:14.4639px"
               id="tspan24160">e</tspan></tspan></text><text
           xml:space="preserve"
           style="font-style:normal;font-variant:normal;font-weight:normal;font-stretch:normal;font-size:17.7396px;font-family:Dyuthi;-inkscape-font-specification:'Dyuthi, Normal';font-variant-ligatures:normal;font-variant-caps:normal;font-variant-numeric:normal;font-variant-east-asian:normal;white-space:pre;inline-size:98.7955;display:inline;fill:#008000;fill-opacity:0.999023;fill-rule:evenodd;stroke:#004200;stroke-width:1.03121;stroke-linecap:round;stroke-dasharray:none;stroke-dashoffset:0;stroke-opacity:1;paint-order:markers stroke fill"
           x="297.22736"
           y="246.60834"
           id="text69358-1"
           transform="matrix(0.85833363,-0.12438579,0.10907296,0.90125971,-129.42066,23.05316)"><tspan
             x="297.22736"
             y="246.60834"
             id="tspan24166"><tspan
               style="font-size:14.4639px"
               id="tspan24164">S</tspan></tspan></text></g></g><path
       id="path2407"
       style="fill:#004200;fill-opacity:1;stroke-width:11.7415;stroke-dasharray:none"
       d="m 26.673307,64.181096 c -0.44341,0.11054 -0.510544,0.129466 -1.094507,0.224276 -0.860118,0.0919 -0.82769,0.117801 -1.613338,0.145211 -0.604041,-0.006 -4.133656,-0.105381 -1.229899,0.255798 0.517909,0.0476 1.862966,0.119936 4.059184,-0.109554 z" /></g></svg>
