<?xml version="1.0" encoding="UTF-8" standalone="no"?>
<!-- Created with Inkscape (http://www.inkscape.org/) -->

<svg
   width="69.186157mm"
   height="94.076736mm"
   viewBox="0 0 69.186157 94.076736"
   version="1.1"
   id="svg5"
   xml:space="preserve"
   xmlns="http://www.w3.org/2000/svg"
   xmlns:svg="http://www.w3.org/2000/svg"><defs
     id="defs2" /><g
     id="layer1"
     transform="translate(-14.111564,-198.88194)"><g
       id="g55023"
       transform="translate(461.79476,247.41421)"
       style="fill:#000000"><path
         style="fill:#f4e1d7;fill-opacity:1;stroke-width:0.0254"
         d="m -423.69627,45.519476 c -0.17031,-0.02753 -0.38605,-0.111656 -0.52881,-0.20622 -0.24604,-0.162966 -0.495,-0.509801 -0.54082,-0.753412 -0.009,-0.0454 -0.0236,-0.08255 -0.0335,-0.08255 -0.01,0 -0.0372,0.06117 -0.0608,0.135933 -0.12496,0.3964 -0.51993,0.757621 -0.93234,0.85265 -0.17203,0.03964 -0.50527,0.03282 -0.66143,-0.01354 -0.44379,-0.13175 -0.74049,-0.413146 -0.90562,-0.858937 -0.0211,-0.05687 -0.0458,-0.206278 -0.0549,-0.332008 l -0.0166,-0.2286 -0.0856,0.1651 c -0.23212,0.447919 -0.78039,0.748769 -1.27234,0.69817 -0.90385,-0.09296 -1.46013,-1.003275 -1.11253,-1.820566 0.0709,-0.166832 0.0373,-0.196626 -0.0826,-0.07311 -0.13419,0.138273 -0.33603,0.268415 -0.51941,0.334902 -0.22171,0.08038 -0.62204,0.0807 -0.8509,6.86e-4 -0.54741,-0.191407 -0.89442,-0.681142 -0.89281,-1.26 10e-4,-0.365803 0.12084,-0.659412 0.37392,-0.91626 l 0.15421,-0.156507 -0.11611,0.03775 c -0.189,0.06146 -0.58982,0.05307 -0.78921,-0.01651 -0.59893,-0.208988 -0.9759,-0.813226 -0.88912,-1.42513 0.0644,-0.453957 0.32216,-0.813771 0.72098,-1.006389 0.0961,-0.04642 0.23736,-0.0974 0.31386,-0.113281 0.14918,-0.03097 0.14963,-0.05155 0.002,-0.09865 -0.13635,-0.04355 -0.37365,-0.205042 -0.49327,-0.3357 -0.48748,-0.532478 -0.47303,-1.316624 0.0336,-1.823245 0.27257,-0.272567 0.55735,-0.389326 0.94378,-0.386938 0.12171,7.62e-4 0.27533,0.01878 0.34593,0.04059 0.0699,0.02158 0.13584,0.03936 0.14664,0.03952 0.0108,2.54e-4 -0.0281,-0.05973 -0.0865,-0.133076 -0.21437,-0.269359 -0.32107,-0.611926 -0.29319,-0.941301 0.0296,-0.349545 0.16365,-0.624032 0.42071,-0.861398 0.26194,-0.241871 0.53739,-0.349959 0.89183,-0.349959 0.37367,0 0.67968,0.128027 0.9462,0.39586 0.14869,0.14942 0.19612,0.177368 0.66738,0.393222 4.95009,2.267321 9.16396,3.418914 13.80422,3.772507 0.70783,0.05394 2.75798,0.07606 3.5306,0.03809 4.76624,-0.234204 9.22778,-1.400874 14.47049,-3.783955 0.54055,-0.245705 0.57117,-0.263505 0.7366,-0.428095 0.27008,-0.268711 0.5567,-0.387304 0.93461,-0.386709 0.24741,3.81e-4 0.38211,0.02963 0.58706,0.127444 0.74825,0.357106 0.96841,1.373304 0.43614,2.013059 -0.0559,0.06717 -0.0957,0.127999 -0.0886,0.135177 0.007,0.0072 0.0684,-0.0062 0.13611,-0.02979 0.17937,-0.06244 0.55768,-0.05738 0.77076,0.01032 0.78742,0.250157 1.14745,1.153211 0.75486,1.893375 -0.12023,0.226662 -0.33629,0.430558 -0.58234,0.549544 -0.11272,0.05451 -0.20998,0.104148 -0.21615,0.11031 -0.006,0.0062 0.0527,0.02447 0.13084,0.04069 0.34014,0.07062 0.70952,0.348 0.87291,0.655528 0.27587,0.519212 0.18686,1.13918 -0.22352,1.557002 -0.34454,0.350782 -0.84374,0.481546 -1.30657,0.342255 l -0.11787,-0.03548 0.16395,0.173802 c 0.50437,0.534652 0.49619,1.327457 -0.019,1.842625 -0.5024,0.502387 -1.29727,0.513997 -1.83502,0.0268 -0.1605,-0.14541 -0.21097,-0.160058 -0.15084,-0.04378 0.12728,0.246116 0.15737,0.678716 0.0674,0.967994 -0.24566,0.789407 -1.13794,1.151743 -1.89346,0.768894 -0.1675,-0.08488 -0.43932,-0.362238 -0.53764,-0.548592 l -0.0781,-0.147998 -0.0153,0.211498 c -0.027,0.372958 -0.15581,0.644962 -0.42145,0.890247 -0.26194,0.241864 -0.53739,0.349951 -0.89183,0.349951 -0.37208,0 -0.69194,-0.135143 -0.94218,-0.398079 -0.162,-0.170216 -0.2547,-0.319921 -0.31633,-0.510873 l -0.0433,-0.134254 -0.0539,0.159654 c -0.10398,0.307825 -0.27083,0.532435 -0.51675,0.695673 -0.626,0.415514 -1.44289,0.240531 -1.85975,-0.398373 -0.0829,-0.127099 -0.14723,-0.29986 -0.19272,-0.517787 -0.0152,-0.07295 -0.0182,-0.07013 -0.0942,0.0889 -0.107,0.224028 -0.38136,0.497677 -0.60363,0.602064 -0.52119,0.24477 -1.11345,0.145214 -1.50762,-0.253418 -0.26009,-0.26304 -0.39464,-0.59178 -0.39774,-0.971807 l -0.001,-0.1524 -0.0559,0.0762 c -0.26426,0.360101 -0.58466,0.551518 -0.98226,0.586836 -0.74697,0.06635 -1.42149,-0.595157 -1.36784,-1.34147 l 0.0104,-0.145032 -0.11622,0.108707 c -0.15448,0.144503 -0.31143,0.233716 -0.49546,0.281638 -0.55965,0.14573 -1.13228,-0.119029 -1.37842,-0.637321 -0.0825,-0.173637 -0.0952,-0.226284 -0.10414,-0.431181 l -0.0102,-0.23339 -0.15119,0.09772 c -0.48779,0.31527 -1.14508,0.124843 -1.38608,-0.401569 -0.0995,-0.217412 -0.1072,-0.541488 -0.0183,-0.773158 0.01,-0.02599 -0.0595,-0.08591 -0.22948,-0.198004 -0.13407,-0.08841 -0.25746,-0.16054 -0.27419,-0.160291 -0.0167,2.54e-4 -0.13712,0.07211 -0.26753,0.159697 -0.20073,0.134816 -0.23486,0.167551 -0.22244,0.213335 0.0628,0.23146 0.0747,0.35481 0.0488,0.505137 -0.081,0.470657 -0.42012,0.77673 -0.88805,0.801408 -0.24211,0.01277 -0.39985,-0.02992 -0.59448,-0.160901 l -0.12605,-0.08483 v 0.136733 c 0,0.3186 -0.10724,0.59353 -0.32202,0.82551 -0.23587,0.25477 -0.52485,0.380523 -0.87444,0.380523 -0.28756,0 -0.61251,-0.131303 -0.82452,-0.333167 l -0.0779,-0.07416 -0.001,0.198212 c -0.004,0.637959 -0.45073,1.156398 -1.08055,1.254315 -0.45868,0.07131 -0.96481,-0.140083 -1.21381,-0.506966 -0.0487,-0.07179 -0.096,-0.13082 -0.10515,-0.131181 -0.009,-3.55e-4 -0.0169,0.08258 -0.0173,0.1843 -9.4e-4,0.238643 -0.04,0.39513 -0.1537,0.615069 -0.40388,0.78151 -1.46725,0.936 -2.09847,0.304876 -0.0964,-0.09639 -0.18433,-0.217434 -0.23925,-0.329347 l -0.0868,-0.176944 -0.0335,0.164244 c -0.13783,0.676263 -0.81863,1.150587 -1.49463,1.041329 z m 0.50734,-0.536118 c 0.16847,-0.06303 0.37376,-0.251983 0.44549,-0.410034 0.051,-0.11237 0.0647,-0.198036 0.0314,-0.197084 -0.0105,3.05e-4 -0.20193,0.01711 -0.42545,0.03736 -0.22352,0.02024 -0.56928,0.03714 -0.76835,0.03755 -0.41504,8.63e-4 -0.41846,0.0033 -0.28938,0.206829 0.20821,0.328308 0.6321,0.465374 1.00627,0.325379 z m 21.00646,-0.0293 c 0.0699,-0.03592 0.17098,-0.109307 0.22474,-0.163086 0.0904,-0.0904 0.19436,-0.255672 0.19436,-0.308872 0,-0.01244 -0.23146,-0.02937 -0.51435,-0.03764 -0.28289,-0.0083 -0.63818,-0.02806 -0.78953,-0.044 -0.15136,-0.01594 -0.28111,-0.02305 -0.28836,-0.0158 -0.0248,0.02483 0.12175,0.308488 0.20296,0.392752 0.18466,0.191595 0.36569,0.262509 0.63998,0.250696 0.15653,-0.0067 0.23237,-0.02375 0.3302,-0.07406 z m -23.5712,-0.0214 c 0.15711,-0.07479 0.33069,-0.244912 0.39441,-0.386558 l 0.0481,-0.106911 -0.10695,-0.01754 c -0.0588,-0.0096 -0.26127,-0.03646 -0.44986,-0.05959 -0.322,-0.03949 -0.90359,-0.141191 -1.02156,-0.178635 -0.0502,-0.01593 -0.0522,-0.01003 -0.0379,0.11114 0.0321,0.271183 0.24397,0.540283 0.5154,0.65468 0.19557,0.08242 0.46458,0.07564 0.65832,-0.01659 z m 26.18317,-0.0077 c 0.23506,-0.115009 0.41778,-0.37102 0.46183,-0.647093 0.0159,-0.09983 0.0131,-0.109144 -0.0295,-0.0964 -0.18292,0.05479 -0.76625,0.147609 -1.47586,0.234845 -0.0594,0.0073 -0.10795,0.02131 -0.10795,0.03114 0,0.0425 0.11324,0.227213 0.18669,0.304543 0.17542,0.184666 0.37548,0.262347 0.6432,0.249736 0.13347,-0.0063 0.21946,-0.02682 0.32158,-0.07678 z m -21.00279,-0.266728 c 0.15254,-0.06748 0.33561,-0.242057 0.41209,-0.392976 0.0653,-0.128854 0.11087,-0.397581 0.0674,-0.397581 -0.0132,0 -0.18344,0.04131 -0.3782,0.09181 -0.19476,0.05049 -0.53418,0.128654 -0.75427,0.173685 -0.22009,0.04503 -0.40667,0.08838 -0.41462,0.09633 -0.0468,0.04682 0.20214,0.325921 0.36656,0.410947 0.19433,0.100493 0.49669,0.108163 0.70101,0.01778 z m 15.7507,-0.0012 c 0.0675,-0.02986 0.16019,-0.08286 0.20597,-0.117785 0.0889,-0.0678 0.25076,-0.285335 0.22871,-0.30738 -0.007,-0.0073 -0.19412,-0.0512 -0.4152,-0.0976 -0.22108,-0.04639 -0.56426,-0.125361 -0.76262,-0.175478 -0.19836,-0.05012 -0.37337,-0.09112 -0.3889,-0.09112 -0.0191,0 -0.0228,0.03896 -0.0114,0.12065 0.0767,0.550408 0.65129,0.88643 1.14348,0.668711 z m -23.58734,-0.29337 c 0.15402,-0.05434 0.32282,-0.184315 0.40968,-0.315447 0.0417,-0.06291 0.0726,-0.12383 0.0688,-0.135367 -0.004,-0.01154 -0.1759,-0.08883 -0.38235,-0.171768 -0.20645,-0.08293 -0.54166,-0.236019 -0.74492,-0.340195 l -0.36957,-0.189407 -0.0392,0.09315 c -0.0545,0.129585 -0.0537,0.394644 0.002,0.55594 0.0629,0.18324 0.24333,0.377398 0.43505,0.468099 0.12357,0.05846 0.18775,0.07237 0.33393,0.07239 0.0995,1e-5 0.22867,-0.01682 0.28698,-0.03739 z m 31.35934,-0.01598 c 0.19502,-0.07297 0.39375,-0.272933 0.46872,-0.47163 0.0453,-0.120139 0.0536,-0.184033 0.0439,-0.338585 -0.007,-0.104775 -0.0248,-0.222575 -0.0405,-0.261777 l -0.0286,-0.07128 -0.26043,0.139624 c -0.30103,0.161379 -0.73198,0.355981 -1.01854,0.459928 -0.10961,0.03976 -0.20525,0.08781 -0.21253,0.106784 -0.0172,0.04496 0.10545,0.22083 0.22005,0.315392 0.21053,0.173718 0.55373,0.224106 0.82786,0.121544 z m -21.03126,-0.536905 c 0.17051,-0.08733 0.32284,-0.257589 0.38925,-0.435075 0.0551,-0.147355 0.0731,-0.346235 0.0312,-0.346235 -0.0127,0 -0.20983,0.07325 -0.43815,0.162787 -0.22831,0.08953 -0.54085,0.205696 -0.69452,0.258145 -0.15367,0.05245 -0.28512,0.100309 -0.2921,0.106362 -0.0274,0.02375 0.25856,0.257607 0.36112,0.295303 0.16843,0.06191 0.48085,0.04186 0.6432,-0.04129 z m 10.77002,0.02877 c 0.0866,-0.0324 0.18971,-0.0985 0.2613,-0.167498 l 0.11826,-0.113975 -0.381,-0.133733 c -0.20955,-0.07355 -0.53038,-0.192489 -0.71295,-0.264302 -0.18257,-0.07181 -0.33973,-0.130572 -0.34925,-0.130572 -0.0321,0 -0.0176,0.221361 0.0218,0.333358 0.0786,0.223062 0.26305,0.409148 0.48724,0.491452 0.14657,0.0538 0.38856,0.04738 0.55456,-0.01473 z M -430.5926,42.83668 c 0.077,-0.03516 0.17681,-0.09959 0.22189,-0.143175 l 0.082,-0.07924 -0.10737,-0.08977 c -0.30562,-0.25554 -0.81302,-0.790357 -0.99125,-1.044819 l -0.0426,-0.06089 -0.0915,0.0878 c -0.29792,0.286052 -0.31914,0.7938 -0.0465,1.112347 0.24614,0.287561 0.63334,0.374 0.97533,0.217739 z m 35.80714,0.01015 c 0.1706,-0.06308 0.34687,-0.234373 0.43357,-0.42134 0.0552,-0.11909 0.0674,-0.181943 0.0673,-0.348496 0,-0.172036 -0.011,-0.224625 -0.071,-0.3429 -0.039,-0.07684 -0.0958,-0.166466 -0.12619,-0.199181 -0.11358,-0.122281 -0.1261,-0.118296 -0.28935,0.09215 -0.17065,0.21998 -0.57242,0.637878 -0.81622,0.848973 l -0.16132,0.139679 0.0851,0.08024 c 0.23141,0.218151 0.54873,0.272669 0.87813,0.150871 z m -21.2199,-0.02074 c 0.2635,-0.09858 0.45296,-0.335701 0.49088,-0.614334 0.03,-0.220368 0.043,-0.222626 -0.62145,0.108275 -0.52495,0.261447 -0.60688,0.309959 -0.5957,0.352719 0.0158,0.06048 0.0887,0.110252 0.23776,0.162436 0.15563,0.05448 0.32714,0.05128 0.48851,-0.0091 z m 6.43609,0.01296 c 0.14884,-0.0442 0.26247,-0.125126 0.26124,-0.186048 -6.1e-4,-0.02998 -0.17562,-0.129072 -0.59055,-0.334378 -0.32433,-0.160475 -0.59826,-0.29573 -0.60874,-0.300566 -0.0347,-0.016 -0.0198,0.238295 0.021,0.357805 0.0706,0.207218 0.28755,0.406885 0.51879,0.477482 0.10426,0.03183 0.26205,0.02616 0.3983,-0.01429 z m -4.58254,-1.02202 c 0.12641,-0.05019 0.28342,-0.232095 0.32332,-0.374594 0.0291,-0.104097 0.0257,-0.351605 -0.005,-0.382618 -0.01,-0.0096 -0.83884,0.468658 -0.87453,0.504352 -0.004,0.0037 0.0108,0.06627 0.0321,0.139096 0.0319,0.108869 0.0509,0.135075 0.10676,0.147348 0.0374,0.0082 0.0794,0.019 0.0933,0.02397 0.042,0.01495 0.2222,-0.01703 0.32426,-0.05756 z m 2.66185,0.03332 c 0.084,-0.01408 0.0929,-0.02453 0.12356,-0.144094 0.0188,-0.0733 0.0235,-0.138466 0.0109,-0.151054 -0.0122,-0.01218 -0.20461,-0.13066 -0.42762,-0.263294 -0.28476,-0.169359 -0.41125,-0.232067 -0.42487,-0.210632 -0.0395,0.06215 -0.0215,0.347457 0.0281,0.444612 0.058,0.113607 0.16414,0.223703 0.26872,0.278605 0.0853,0.04476 0.23404,0.07949 0.29263,0.06831 0.0209,-0.004 0.0788,-0.0141 0.12861,-0.02245 z m -20.49122,-1.275697 c 0.0319,-0.0093 0.0406,-0.02665 0.028,-0.0557 -0.17356,-0.399344 -0.31604,-0.90453 -0.36829,-1.305807 -0.0367,-0.281622 -0.0376,-0.282346 -0.23936,-0.187376 -0.15414,0.07255 -0.32091,0.237455 -0.39921,0.394742 -0.0482,0.09691 -0.0579,0.157038 -0.0577,0.357784 2.8e-4,0.201971 0.01,0.25908 0.0582,0.350396 0.19601,0.369138 0.60453,0.555366 0.97832,0.445963 z m 38.46572,-0.03942 c 0.17018,-0.06268 0.34637,-0.233545 0.43427,-0.42115 0.0903,-0.192671 0.096,-0.489369 0.0129,-0.670458 -0.0747,-0.162743 -0.24062,-0.335821 -0.39633,-0.413416 -0.17559,-0.0875 -0.21637,-0.08435 -0.23109,0.01783 -0.0836,0.58008 -0.1568,0.87804 -0.31258,1.272009 -0.0488,0.123342 -0.0817,0.231186 -0.0733,0.239654 0.0263,0.02625 0.22523,0.04768 0.33195,0.03574 0.0559,-0.0063 0.16127,-0.03334 0.23421,-0.06021 z m -38.75465,-2.769895 c 0.0741,-0.383606 0.23171,-0.838091 0.42095,-1.213864 0.10948,-0.217393 0.10356,-0.226629 -0.14561,-0.227198 -0.24168,-5.59e-4 -0.42884,0.07494 -0.59316,0.239256 -0.37162,0.371624 -0.3072,0.990379 0.13352,1.282296 0.065,0.04304 0.12613,0.07826 0.13589,0.07826 0.01,0 0.0315,-0.07144 0.0484,-0.15875 z m 38.83038,-0.0487 c 0.16121,-0.166215 0.22263,-0.322397 0.22306,-0.567245 3e-4,-0.167244 -0.0115,-0.228618 -0.067,-0.346848 -0.0797,-0.170119 -0.23251,-0.326252 -0.39763,-0.406346 -0.12694,-0.06157 -0.37146,-0.0902 -0.52476,-0.06144 l -0.0891,0.01672 0.12588,0.250835 c 0.14553,0.290012 0.30541,0.737583 0.36785,1.029825 0.0691,0.323299 0.0529,0.298961 0.1613,0.242944 0.0515,-0.02662 0.14167,-0.09792 0.20038,-0.158443 z m -37.15,-2.827845 c 0.1592,-0.15367 0.36104,-0.335491 0.44853,-0.404048 0.15122,-0.118502 0.15697,-0.12696 0.11662,-0.171555 -0.0233,-0.0258 -0.10636,-0.07829 -0.18447,-0.116652 -0.12106,-0.05945 -0.17388,-0.06975 -0.35792,-0.06975 -0.18467,0 -0.2367,0.01021 -0.35968,0.07061 -0.17297,0.08494 -0.3088,0.228852 -0.39799,0.421646 -0.053,0.114477 -0.0659,0.180477 -0.0652,0.333248 8.9e-4,0.204238 0.0408,0.329321 0.15151,0.474431 l 0.0637,0.08347 0.14774,-0.170998 c 0.0813,-0.09405 0.278,-0.29673 0.4372,-0.4504 z m 35.88997,0.3429 c 0.11137,-0.29448 0.0333,-0.651483 -0.19158,-0.876245 -0.17057,-0.170462 -0.31736,-0.227599 -0.58553,-0.227916 -0.2009,-2.54e-4 -0.24399,0.0081 -0.3556,0.06873 -0.13346,0.07252 -0.2159,0.130617 -0.2159,0.152161 0,0.0071 0.0886,0.08565 0.19685,0.174648 0.2678,0.220139 0.65988,0.601625 0.83758,0.814947 l 0.14659,0.175983 0.0574,-0.07131 c 0.0316,-0.03922 0.0812,-0.13417 0.11021,-0.211005 z m -19.63661,0.719587 c -10.09485,-0.366644 -19.52398,-5.123526 -25.82232,-13.027051 -0.53515,-0.671543 -1.33345,-1.759743 -1.59732,-2.177385 -0.0417,-0.06603 -0.0829,-0.120081 -0.0915,-0.120106 -0.009,0 -0.0458,0.04553 -0.0827,0.101239 -0.17942,0.271122 -0.56767,0.605653 -0.89222,0.768764 -0.32713,0.164409 -0.8444,0.265969 -1.1938,0.234391 -0.6064,-0.05481 -1.11858,-0.29944 -1.52689,-0.729287 -0.4474,-0.470995 -0.67178,-1.077654 -0.63668,-1.721353 0.0325,-0.595915 0.26121,-1.109294 0.68143,-1.529509 0.16911,-0.169114 0.4697,-0.384777 0.62724,-0.450035 0.0441,-0.01827 0.0802,-0.0413 0.0802,-0.05118 0,-0.0099 -0.0578,-0.03129 -0.12839,-0.04759 -0.0706,-0.0163 -0.21283,-0.06865 -0.31604,-0.116335 -0.66242,-0.306059 -1.13858,-0.878842 -1.31243,-1.57878 -0.0776,-0.312252 -0.0768,-0.820405 0.002,-1.116073 0.12437,-0.468651 0.43702,-0.9588 0.79497,-1.246287 l 0.0939,-0.07538 -0.22586,-0.672663 c -1.5213,-4.5307148 -2.08945,-9.3431387 -1.66273,-14.083866 0.58536,-6.5030937 2.98189,-12.683183 6.92924,-17.868901 2.04337,-2.684419 4.53611,-5.115194 7.25896,-7.078525 3.61392,-2.605842 7.65121,-4.477158 11.96468,-5.545729 3.81682,-0.945537 7.85474,-1.232388 11.76839,-0.83602 4.9704,0.503393 9.6888,2.042555 14.0335,4.577787 5.24387,3.059918 9.6685,7.56534 12.65714,12.88824 4.05344,7.2193561 5.38702,15.66628391 3.7523,23.7671545 -0.3485,1.7269893 -0.8939,3.6525505 -1.4622,5.1623905 -0.0346,0.09182 -0.0628,0.175023 -0.0628,0.184889 0,0.0099 0.0497,0.082 0.11054,0.160292 0.20877,0.268856 0.38516,0.671591 0.44696,1.020539 0.0392,0.221366 0.0325,0.648617 -0.0136,0.872706 -0.1267,0.614898 -0.52114,1.178702 -1.05926,1.514099 -0.10769,0.06712 -0.1958,0.124668 -0.1958,0.127886 0,0.0032 0.0613,0.04805 0.13617,0.09964 0.40913,0.281777 0.75029,0.78724 0.89532,1.326502 0.0652,0.242456 0.0671,0.866544 0.003,1.098362 -0.16349,0.594449 -0.50089,1.076389 -0.9739,1.391118 -0.435,0.289438 -0.86445,0.406585 -1.40715,0.383847 -0.59544,-0.02495 -1.06395,-0.225321 -1.53636,-0.65708 -0.11921,-0.108948 -0.14915,-0.125695 -0.16718,-0.09348 -0.0466,0.08333 -0.73107,1.041748 -0.98036,1.372804 -5.21353,6.923461 -12.83503,11.639095 -21.3572,13.214284 -1.59362,0.294559 -3.18961,0.474068 -4.8641,0.547098 -0.50576,0.02206 -2.15034,0.02736 -2.667,0.0086 z m 2.0955,-10.780604 c 1.19204,-0.145339 2.44637,-0.962094 4.86947,-3.170758 l 0.31868,-0.290475 -0.39012,-0.312918 c -1.64239,-1.317404 -2.91007,-2.061741 -3.84084,-2.25521 -0.1022,-0.02124 -0.30222,-0.03849 -0.4445,-0.03832 -0.38515,4.57e-4 -0.59334,0.06754 -0.94419,0.304292 -0.29577,0.199588 -0.36995,0.196896 -0.6988,-0.02535 -0.36518,-0.246799 -0.61023,-0.317282 -1.0287,-0.295885 -0.82602,0.04224 -1.94591,0.600685 -3.42926,1.71005 -0.51029,0.38163 -1.11734,0.870441 -1.11734,0.899701 0,0.02398 0.27305,0.276916 0.9144,0.84705 1.80204,1.601935 2.95821,2.349571 3.9751,2.570503 0.31705,0.06888 1.43251,0.104089 1.8161,0.05732 z m -14.26781,-10.954309 c 1.02369,-0.139182 1.88258,-0.371925 2.77431,-0.751784 2.17167,-0.925086 3.97668,-2.624743 5.03916,-4.7450229 0.59267,-1.1827308 0.95985,-2.5019357 1.04625,-3.758936 l 0.0179,-0.2609673 0.21857,-0.2324836 c 0.12022,-0.1278637 0.39574,-0.3975964 0.61228,-0.599402 1.11097,-1.0353955 1.9676,-1.5575306 2.8702,-1.7494428 0.33256,-0.070711 0.97133,-0.06459 1.31683,0.012619 0.38143,0.08524 0.73113,0.2139798 1.12838,0.4154094 0.74344,0.3769741 1.4979,0.9520987 2.31869,1.7675403 l 0.3062,0.3042057 0.0319,0.3779444 c 0.25745,3.0493514 1.91649,5.8540318 4.46109,7.5416588 1.40464,0.931583 2.90007,1.468054 4.60269,1.651168 0.5017,0.05396 1.49422,0.05385 2.00131,-2.54e-4 1.40594,-0.149901 2.70685,-0.556616 3.90079,-1.219536 0.3528,-0.195884 1.07202,-0.675292 1.36166,-0.907628 0.96998,-0.778091 1.74766,-1.659527 2.37072,-2.6870201 0.77099,-1.271453 1.2464,-2.6834365 1.41274,-4.195938 0.058,-0.5269992 0.058,-1.5458897 0,-2.072889 -0.25725,-2.3390886 -1.25908,-4.4440248 -2.89859,-6.0902319 -2.52283,-2.5331319 -6.18593,-3.5396705 -9.65252,-2.652291 -1.64697,0.4215893 -3.10985,1.2221871 -4.3942,2.4048264 -0.81789,0.7531177 -1.61497,1.8178578 -2.12992,2.84516083 -0.42556,0.84896709 -0.78225,1.93169037 -0.91883,2.78908017 -0.0245,0.15367 -0.0519,0.2878607 -0.061,0.2982036 -0.009,0.010343 -0.11891,-0.06792 -0.24407,-0.1739138 -0.78904,-0.6681826 -1.69307,-1.2338279 -2.42468,-1.5171091 -1.39598,-0.54052468 -2.73558,-0.47962563 -4.0767,0.1853261 -0.62645,0.3106064 -1.21262,0.7160971 -1.8669,1.2914554 -0.17463,0.1535608 -0.3201,0.2768067 -0.32327,0.2738806 -0.003,-0.00293 -0.0352,-0.1646504 -0.0711,-0.3593846 -0.31324,-1.69791643 -0.9996,-3.19808367 -2.08527,-4.5577584 -0.35003,-0.4383609 -1.06883,-1.1574654 -1.5033,-1.5039163 -0.99082,-0.7901026 -2.04291,-1.3611429 -3.21739,-1.7462933 -1.60255,-0.525493 -3.3503,-0.6403721 -4.99167,-0.3280638 -2.40846,0.4582668 -4.50024,1.7201693 -6.05788,3.6545115 -0.26247,0.3259506 -0.72921,1.0314813 -0.94938,1.43510004 -0.73635,1.34988305 -1.16217,2.88360876 -1.21824,4.38785016 -0.0334,0.8971966 0.0225,1.6265475 0.18749,2.4462868 0.40165,1.9951219 1.37806,3.7849609 2.84666,5.2181887 0.75405,0.735879 1.49997,1.275504 2.41005,1.743512 1.24686,0.641195 2.37426,0.963554 3.8862,1.111197 0.25532,0.02493 1.69078,-0.0079 1.96279,-0.04486 z m -1.76092,-1.362009 c -2.56839,-0.178265 -4.86742,-1.423764 -6.39947,-3.4669252 -0.7952,-1.0604856 -1.33819,-2.2920758 -1.58468,-3.5943415 -0.19032,-1.0054844 -0.19017,-2.2016924 4.1e-4,-3.2004001 0.66532,-3.48655149 3.35153,-6.2143389 6.80397,-6.9092702 0.65543,-0.1319302 0.96445,-0.1611427 1.7145,-0.16208 0.86331,-0.00109 1.40635,0.063309 2.159,0.2560066 1.56478,0.4006216 2.92617,1.1851971 4.0535,2.3360686 0.93876,0.9583573 1.58603,2.00510405 2.01667,3.2612992 0.33465,0.9761906 0.4584,1.7473753 0.45628,2.8435758 -10e-4,0.7449948 -0.0296,1.0504603 -0.15411,1.6693669 -0.65712,3.2673342 -3.0989,5.8555029 -6.32154,6.7005509 -0.84092,0.220507 -1.90934,0.324117 -2.74453,0.266149 z m 29.00813,-0.04121 c -1.17075,-0.07659 -2.29141,-0.374825 -3.3274,-0.885487 -0.92698,-0.456931 -1.59572,-0.934387 -2.3121,-1.650769 -1.12811,-1.1281156 -1.89705,-2.4828984 -2.28537,-4.0265987 -0.77986,-3.1001869 0.22016,-6.39697754 2.59087,-8.541459 1.93152,-1.7471975 4.53054,-2.5328119 7.11791,-2.1515503 2.41385,0.3556915 4.5843,1.7346626 5.93623,3.77150904 0.77073,1.1612093 1.21126,2.35085896 1.40256,3.78761006 0.061,0.4582567 0.061,1.5927452 0,2.0543902 -0.18828,1.42335 -0.63457,2.6276936 -1.40245,3.7846001 -0.33564,0.5056912 -0.62381,0.8563052 -1.07677,1.3100936 -1.42547,1.428098 -3.20747,2.281479 -5.24637,2.512431 -0.2501,0.02833 -1.15403,0.05112 -1.397,0.03523 z m -29.86633,-42.954799 c -0.0203,-0.03345 -0.14155,-0.820365 -0.18097,-1.174657 -0.0672,-0.603563 -0.0896,-1.037579 -0.0897,-1.735141 -1e-4,-0.740021 0.0254,-1.19737 0.10308,-1.846259 0.62636,-5.234131 3.89439,-9.805537 8.64258,-12.089458 1.78164,-0.856985 3.59854,-1.341413 5.63064,-1.501254 0.48083,-0.03782 1.68508,-0.03789 2.1844,-1.29e-4 2.14587,0.16229 4.12386,0.718574 6.01153,1.690668 4.0634,2.092526 6.99981,5.89966 8.00506,10.378759 0.15361,0.68442 0.27714,1.537639 0.33428,2.308814 0.0328,0.442647 0.0326,1.66385 -2.8e-4,2.1209 -0.0313,0.435156 -0.10121,1.05655 -0.12315,1.095293 -0.0107,0.01892 -0.15268,-0.03057 -0.42253,-0.147282 -5.21808,-2.256899 -10.91811,-3.230574 -16.5481,-2.826735 -4.34059,0.311351 -8.64786,1.429666 -12.4968,3.244604 -0.34615,0.163223 -0.89001,0.424215 -0.97011,0.465539 -0.0376,0.01941 -0.0736,0.02676 -0.0799,0.01634 z"
         id="path55025" /></g></g></svg>
