<?xml version="1.0" encoding="UTF-8" standalone="no"?>
<!-- Created with Inkscape (http://www.inkscape.org/) -->

<svg
   width="70.652878mm"
   height="81.430038mm"
   viewBox="0 0 70.652878 81.430038"
   version="1.1"
   id="svg5"
   inkscape:version="1.2.1 (1:1.2.1+202210291243+9c6d41e410)"
   sodipodi:docname="opa.svg"
   xml:space="preserve"
   xmlns:inkscape="http://www.inkscape.org/namespaces/inkscape"
   xmlns:sodipodi="http://sodipodi.sourceforge.net/DTD/sodipodi-0.dtd"
   xmlns="http://www.w3.org/2000/svg"
   xmlns:svg="http://www.w3.org/2000/svg"><sodipodi:namedview
     id="namedview7"
     pagecolor="#ffffff"
     bordercolor="#000000"
     borderopacity="0.25"
     inkscape:showpageshadow="2"
     inkscape:pageopacity="0.0"
     inkscape:pagecheckerboard="0"
     inkscape:deskcolor="#d1d1d1"
     inkscape:document-units="mm"
     showgrid="false"
     showguides="true"
     inkscape:zoom="0.70710678"
     inkscape:cx="553.66461"
     inkscape:cy="275.77165"
     inkscape:window-width="1920"
     inkscape:window-height="1043"
     inkscape:window-x="4480"
     inkscape:window-y="183"
     inkscape:window-maximized="1"
     inkscape:current-layer="g54777"
     inkscape:lockguides="false" /><defs
     id="defs2" /><g
     inkscape:label="Layer 1"
     inkscape:groupmode="layer"
     id="layer1"
     transform="translate(-121.90973,-207.69294)"><g
       id="g54777"
       transform="translate(609.06297,-25.493158)"
       style="fill:#f4e1d7;fill-opacity:1"
       inkscape:export-filename="opa.svg"
       inkscape:export-xdpi="96"
       inkscape:export-ydpi="96"><path
         style="fill:#f4e1d7;stroke-width:0.0254;fill-opacity:1"
         d="m -462.58874,314.57524 c -0.63383,-0.0994 -1.16646,-0.37186 -1.66025,-0.84928 -0.7648,-0.73946 -1.26346,-1.7963 -1.48656,-3.15055 -0.30397,-1.84508 0.0576,-3.90822 0.91245,-5.207 0.91512,-1.3903 2.12081,-1.87322 3.85996,-1.54607 1.86273,0.35041 4.48087,1.78381 7.16908,3.92501 0.23396,0.18635 0.43638,0.34169 0.44982,0.34519 0.0134,0.004 0.0751,-0.0549 0.13698,-0.12976 0.36296,-0.43898 0.94378,-0.69256 1.50153,-0.65555 0.12622,0.008 0.29807,0.0338 0.38189,0.0566 0.35236,0.0957 0.74572,0.35423 0.94502,0.62118 0.052,0.0696 0.10399,0.1266 0.11556,0.1266 0.0116,0 0.18915,-0.13496 0.39462,-0.29992 1.54875,-1.24335 3.27284,-2.37543 4.66564,-3.06354 1.49134,-0.73681 2.69256,-1.06567 3.73436,-1.02239 0.75805,0.0315 1.32693,0.23929 1.8796,0.68653 1.40492,1.13692 2.12213,3.60603 1.7636,6.07151 -0.28203,1.93941 -1.2736,3.45737 -2.56704,3.9298 -0.39826,0.14547 -0.64241,0.18402 -1.16506,0.18396 -0.49423,0 -0.7205,-0.0272 -1.23112,-0.14788 -1.51075,-0.35697 -3.46569,-1.41291 -5.63958,-3.04617 -0.4353,-0.32704 -1.28333,-1.00355 -1.5748,-1.25628 -0.17671,-0.15322 -0.17804,-0.15383 -0.2159,-0.0989 -0.24982,0.36244 -0.4697,0.56619 -0.77153,0.71498 -0.77376,0.38141 -1.71425,0.16848 -2.24396,-0.50805 -0.0668,-0.0853 -0.13284,-0.17392 -0.14681,-0.19699 -0.0216,-0.0357 -0.0907,0.0124 -0.46502,0.3239 -1.69186,1.40785 -3.4358,2.58635 -4.86898,3.29029 -1.5358,0.75434 -2.85678,1.06222 -3.8735,0.90278 z m 9.2075,-10.75894 c -12.74325,-0.57006 -24.20269,-7.96745 -29.95899,-19.33939 -3.74283,-7.39419 -4.7688,-15.83524 -2.90682,-23.9155 1.63886,-7.112 5.47494,-13.58274 10.92789,-18.43328 5.74744,-5.11249 12.97897,-8.20999 20.61712,-8.831 0.93624,-0.0761 1.30659,-0.0925 2.4257,-0.1073 2.19676,-0.0291 4.08225,0.11129 6.21495,0.46259 8.36276,1.37752 15.94975,5.72052 21.38613,12.24203 4.65705,5.58661 7.46494,12.44754 8.07179,19.72296 0.0865,1.03746 0.10256,1.48998 0.10256,2.8956 0,1.40563 -0.016,1.85814 -0.10256,2.8956 -0.74672,8.95237 -4.83385,17.24543 -11.4679,23.2691 -5.842,5.30449 -13.28626,8.49451 -21.18237,9.07708 -1.18838,0.0877 -2.9542,0.11399 -4.1275,0.0615 z m -13.5009,-10.81619 c 1.60819,-2.11145 1.81942,-2.37869 1.9139,-2.42131 0.20385,-0.092 0.76922,-0.27613 1.1095,-0.3614 0.65997,-0.16539 1.19271,-0.24883 2.5908,-0.40581 1.96566,-0.2207 2.75569,-0.35755 3.6703,-0.63579 0.96792,-0.29445 1.9862,-0.82647 2.73003,-1.42635 1.12128,-0.90427 2.13769,-2.3064 2.86023,-3.94564 0.0585,-0.13271 0.11476,-0.23907 0.12503,-0.23635 0.0103,0.003 0.0686,0.11592 0.12974,0.25156 0.61692,1.36967 1.38561,2.51857 2.25615,3.37212 1.05433,1.03375 2.28896,1.70572 3.85759,2.09955 0.75879,0.19051 1.43325,0.29689 2.97643,0.46949 1.5263,0.1707 2.11597,0.26263 2.794,0.43557 0.35475,0.0905 0.9092,0.27792 1.08154,0.36562 0.0709,0.0361 0.48725,0.56644 1.8912,2.40914 0.99014,1.29958 1.80489,2.35824 1.81053,2.35259 0.0245,-0.0245 0.13356,-1.66628 0.1565,-2.35612 0.0399,-1.20057 -0.0172,-2.64747 -0.1543,-3.90537 -0.35709,-3.27714 -1.26948,-6.11508 -2.62129,-8.1534 -1.17214,-1.76739 -2.69041,-2.92053 -4.44441,-3.37557 -2.6176,-0.67909 -5.76044,0.15528 -9.29582,2.46789 l -0.42545,0.2783 -0.005,0.49884 -0.005,0.49884 -0.016,-0.4826 c -0.009,-0.26543 -0.018,-0.48427 -0.0204,-0.48631 -0.002,-0.002 -0.19582,-0.12878 -0.42982,-0.28163 -1.90413,-1.24383 -3.76997,-2.08954 -5.41655,-2.45509 -0.75811,-0.1683 -1.2805,-0.22692 -2.0193,-0.22658 -0.78914,3.6e-4 -1.36284,0.0781 -2.05242,0.27806 -3.09987,0.89895 -5.3649,4.00451 -6.43283,8.81999 -0.20274,0.91417 -0.38655,2.10525 -0.47871,3.10186 -0.0889,0.96179 -0.10382,1.34945 -0.10249,2.667 10e-4,1.13362 0.01,1.44201 0.0577,2.0574 0.0828,1.06431 0.0875,1.11932 0.0945,1.11179 0.004,-0.004 0.81992,-1.07492 1.81415,-2.38029 z m 1.6518,-17.79278 c 0.72939,-0.10128 1.26331,-0.21943 1.8628,-0.41219 1.4356,-0.46162 2.67955,-1.19068 3.8141,-2.23539 0.54809,-0.50469 1.03839,-1.08542 1.49725,-1.77344 0.95919,-1.43818 1.50822,-3.00754 1.66562,-4.76107 0.0211,-0.23552 0.0406,-0.33321 0.0763,-0.38334 0.0745,-0.10467 0.87881,-0.88008 1.19821,-1.1552 0.91289,-0.78634 1.6624,-1.20575 2.45874,-1.37587 0.29892,-0.0639 0.96707,-0.0637 1.27,2.6e-4 1.02184,0.21576 2.06249,0.84236 3.2639,1.96524 0.55668,0.5203 0.54636,0.50494 0.57402,0.85413 0.25731,3.24874 2.05623,6.16439 4.84345,7.85015 1.31069,0.79273 2.81146,1.27853 4.36992,1.41454 0.51691,0.0451 1.6708,0.018 2.16277,-0.0509 1.90332,-0.26637 3.5964,-1.00198 5.08054,-2.20737 0.33107,-0.2689 1.11628,-1.05213 1.38176,-1.37829 1.25587,-1.54293 1.99398,-3.29895 2.24112,-5.33181 0.063,-0.51784 0.0628,-1.64436 -2.5e-4,-2.17144 -0.29395,-2.4567 -1.33888,-4.55292 -3.11574,-6.25044 -1.5737,-1.50343 -3.6464,-2.44966 -5.90019,-2.69354 -0.4647,-0.0503 -1.4673,-0.0565 -1.90923,-0.0119 -2.81563,0.28446 -5.26912,1.60553 -6.98597,3.76155 -1.07425,1.34902 -1.78644,2.94881 -2.06333,4.63481 l -0.0441,0.26874 -0.24119,-0.20673 c -1.18951,-1.01955 -2.42118,-1.65634 -3.55588,-1.83843 -1.61191,-0.25868 -3.17249,0.3217 -4.83815,1.7993 -0.16734,0.14845 -0.31022,0.26989 -0.3175,0.26988 -0.007,-2e-5 -0.0339,-0.12861 -0.0591,-0.28575 -0.23014,-1.43314 -0.86244,-2.95047 -1.74413,-4.1854 -0.9512,-1.33235 -2.27416,-2.45317 -3.74716,-3.17466 -2.3946,-1.17289 -5.12289,-1.35372 -7.65974,-0.5077 -2.48348,0.82823 -4.58682,2.64438 -5.77543,4.98685 -1.35151,2.6635 -1.45724,5.79193 -0.28816,8.52606 0.73372,1.71593 1.92051,3.18491 3.46175,4.28486 1.40185,1.00048 3.15179,1.64162 4.94028,1.81003 0.37686,0.0355 1.73853,0.0122 2.0828,-0.0356 z m -1.74123,-1.33653 c -1.17414,-0.075 -2.28927,-0.37546 -3.34063,-0.89995 -0.8885,-0.44325 -1.52235,-0.90155 -2.24767,-1.62518 -0.51795,-0.51674 -0.74995,-0.79662 -1.11597,-1.34631 -0.76522,-1.14919 -1.21153,-2.35611 -1.40078,-3.78806 -0.0543,-0.41118 -0.0619,-1.51613 -0.0132,-1.92739 0.16664,-1.40676 0.62205,-2.68948 1.35216,-3.80845 0.90011,-1.37951 2.05613,-2.39793 3.52991,-3.10973 0.87699,-0.42357 1.71491,-0.6713 2.73251,-0.80786 0.46214,-0.062 1.61732,-0.0614 2.07979,0.001 1.10016,0.14867 2.03395,0.44 2.9718,0.92719 2.10678,1.0944 3.70271,3.04906 4.34205,5.31804 0.22889,0.81232 0.32628,1.52792 0.32582,2.39414 -7.1e-4,1.38524 -0.2771,2.57897 -0.8821,3.81 -0.47077,0.95792 -1.00921,1.7014 -1.7569,2.42594 -1.51073,1.46397 -3.44016,2.30796 -5.57261,2.43765 -0.45902,0.0279 -0.55182,0.0278 -1.00419,-10e-4 z m 29.00813,-0.0396 c -0.87479,-0.0574 -1.70519,-0.23045 -2.5405,-0.52951 -0.41134,-0.14727 -1.20109,-0.53368 -1.587,-0.7765 -2.32948,-1.46569 -3.81001,-3.87259 -4.06561,-6.60947 -0.044,-0.47106 -0.0175,-1.53222 0.0494,-1.98044 0.23981,-1.60623 0.84511,-2.99189 1.86711,-4.27419 0.26726,-0.33533 0.94845,-1.01393 1.2982,-1.29324 1.28041,-1.02257 2.77181,-1.64668 4.445,-1.8601 0.49136,-0.0627 1.51053,-0.0624 2.0066,6.1e-4 0.70722,0.0898 1.40133,0.25718 2.0266,0.48875 0.39977,0.14806 1.19593,0.5395 1.55997,0.76698 1.9026,1.18886 3.27145,3.05802 3.82602,5.2244 0.1989,0.77697 0.25682,1.25673 0.25758,2.1336 6.4e-4,0.72442 -0.0191,0.98603 -0.11519,1.52632 -0.63655,3.57931 -3.40271,6.37479 -6.97078,7.04468 -0.57811,0.10854 -1.53196,0.17257 -2.0574,0.13811 z"
         id="path54781" /></g></g></svg>
