<?xml version="1.0" encoding="UTF-8" standalone="no"?>
<!-- Created with Inkscape (http://www.inkscape.org/) -->

<svg
   width="70.652878mm"
   height="81.430038mm"
   viewBox="0 0 70.652878 81.430038"
   version="1.1"
   id="svg5"
   inkscape:version="1.2.1 (1:1.2.1+202210291243+9c6d41e410)"
   sodipodi:docname="drawing1.svg.2022_11_02_20_49_18.0.svg"
   xml:space="preserve"
   xmlns:inkscape="http://www.inkscape.org/namespaces/inkscape"
   xmlns:sodipodi="http://sodipodi.sourceforge.net/DTD/sodipodi-0.dtd"
   xmlns="http://www.w3.org/2000/svg"
   xmlns:svg="http://www.w3.org/2000/svg"><sodipodi:namedview
     id="namedview7"
     pagecolor="#ffffff"
     bordercolor="#000000"
     borderopacity="0.25"
     inkscape:showpageshadow="2"
     inkscape:pageopacity="0.0"
     inkscape:pagecheckerboard="0"
     inkscape:deskcolor="#d1d1d1"
     inkscape:document-units="mm"
     showgrid="false"
     showguides="true"
     inkscape:zoom="0.70710678"
     inkscape:cx="729.7342"
     inkscape:cy="275.77164"
     inkscape:window-width="1920"
     inkscape:window-height="1043"
     inkscape:window-x="3584"
     inkscape:window-y="89"
     inkscape:window-maximized="1"
     inkscape:current-layer="layer1"
     inkscape:lockguides="false" /><defs
     id="defs2" /><g
     inkscape:label="Layer 1"
     inkscape:groupmode="layer"
     id="layer1"
     transform="translate(-121.90973,-207.69294)"><g
       id="g54777"
       transform="translate(609.06297,-25.493158)"
       style="fill:#000000"><path
         style="fill:#000000;stroke-width:0.0254"
         d="m -462.58874,314.57524 c -0.63383,-0.0994 -1.16646,-0.37186 -1.66025,-0.84928 -0.7648,-0.73946 -1.26346,-1.7963 -1.48656,-3.15055 -0.30397,-1.84508 0.0576,-3.90822 0.91245,-5.207 0.91512,-1.3903 2.12081,-1.87322 3.85996,-1.54607 1.86273,0.35041 4.48087,1.78381 7.16908,3.92501 0.23396,0.18635 0.43638,0.34169 0.44982,0.34519 0.0134,0.004 0.0751,-0.0549 0.13698,-0.12976 0.36296,-0.43898 0.94378,-0.69256 1.50153,-0.65555 0.12622,0.008 0.29807,0.0338 0.38189,0.0566 0.35236,0.0957 0.74572,0.35423 0.94502,0.62118 0.052,0.0696 0.10399,0.1266 0.11556,0.1266 0.0116,0 0.18915,-0.13496 0.39462,-0.29992 1.54875,-1.24335 3.27284,-2.37543 4.66564,-3.06354 1.49134,-0.73681 2.69256,-1.06567 3.73436,-1.02239 0.75805,0.0315 1.32693,0.23929 1.8796,0.68653 1.40492,1.13692 2.12213,3.60603 1.7636,6.07151 -0.28203,1.93941 -1.2736,3.45737 -2.56704,3.9298 -0.39826,0.14547 -0.64241,0.18402 -1.16506,0.18396 -0.49423,0 -0.7205,-0.0272 -1.23112,-0.14788 -1.51075,-0.35697 -3.46569,-1.41291 -5.63958,-3.04617 -0.4353,-0.32704 -1.28333,-1.00355 -1.5748,-1.25628 -0.17671,-0.15322 -0.17804,-0.15383 -0.2159,-0.0989 -0.24982,0.36244 -0.4697,0.56619 -0.77153,0.71498 -0.77376,0.38141 -1.71425,0.16848 -2.24396,-0.50805 -0.0668,-0.0853 -0.13284,-0.17392 -0.14681,-0.19699 -0.0216,-0.0357 -0.0907,0.0124 -0.46502,0.3239 -1.69186,1.40785 -3.4358,2.58635 -4.86898,3.29029 -1.5358,0.75434 -2.85678,1.06222 -3.8735,0.90278 z m 9.2075,-10.75894 c -12.74325,-0.57006 -24.20269,-7.96745 -29.95899,-19.33939 -3.74283,-7.39419 -4.7688,-15.83524 -2.90682,-23.9155 1.63886,-7.112 5.47494,-13.58274 10.92789,-18.43328 5.74744,-5.11249 12.97897,-8.20999 20.61712,-8.831 0.93624,-0.0761 1.30659,-0.0925 2.4257,-0.1073 2.19676,-0.0291 4.08225,0.11129 6.21495,0.46259 8.36276,1.37752 15.94975,5.72052 21.38613,12.24203 4.65705,5.58661 7.46494,12.44754 8.07179,19.72296 0.0865,1.03746 0.10256,1.48998 0.10256,2.8956 0,1.40563 -0.016,1.85814 -0.10256,2.8956 -0.74672,8.95237 -4.83385,17.24543 -11.4679,23.2691 -5.842,5.30449 -13.28626,8.49451 -21.18237,9.07708 -1.18838,0.0877 -2.9542,0.11399 -4.1275,0.0615 z m -13.5009,-10.81619 c 1.60819,-2.11145 1.81942,-2.37869 1.9139,-2.42131 0.20385,-0.092 0.76922,-0.27613 1.1095,-0.3614 0.65997,-0.16539 1.19271,-0.24883 2.5908,-0.40581 1.96566,-0.2207 2.75569,-0.35755 3.6703,-0.63579 0.96792,-0.29445 1.9862,-0.82647 2.73003,-1.42635 1.12128,-0.90427 2.13769,-2.3064 2.86023,-3.94564 0.0585,-0.13271 0.11476,-0.23907 0.12503,-0.23635 0.0103,0.003 0.0686,0.11592 0.12974,0.25156 0.61692,1.36967 1.38561,2.51857 2.25615,3.37212 1.05433,1.03375 2.28896,1.70572 3.85759,2.09955 0.75879,0.19051 1.43325,0.29689 2.97643,0.46949 1.5263,0.1707 2.11597,0.26263 2.794,0.43557 0.35475,0.0905 0.9092,0.27792 1.08154,0.36562 0.0709,0.0361 0.48725,0.56644 1.8912,2.40914 0.99014,1.29958 1.80489,2.35824 1.81053,2.35259 0.0245,-0.0245 0.13356,-1.66628 0.1565,-2.35612 0.0399,-1.20057 -0.0172,-2.64747 -0.1543,-3.90537 -0.35709,-3.27714 -1.26948,-6.11508 -2.62129,-8.1534 -1.17214,-1.76739 -2.69041,-2.92053 -4.44441,-3.37557 -2.6176,-0.67909 -5.76044,0.15528 -9.29582,2.46789 l -0.42545,0.2783 -0.005,0.49884 -0.005,0.49884 -0.016,-0.4826 c -0.009,-0.26543 -0.018,-0.48427 -0.0204,-0.48631 -0.002,-0.002 -0.19582,-0.12878 -0.42982,-0.28163 -1.90413,-1.24383 -3.76997,-2.08954 -5.41655,-2.45509 -0.75811,-0.1683 -1.2805,-0.22692 -2.0193,-0.22658 -0.78914,3.6e-4 -1.36284,0.0781 -2.05242,0.27806 -3.09987,0.89895 -5.3649,4.00451 -6.43283,8.81999 -0.20274,0.91417 -0.38655,2.10525 -0.47871,3.10186 -0.0889,0.96179 -0.10382,1.34945 -0.10249,2.667 10e-4,1.13362 0.01,1.44201 0.0577,2.0574 0.0828,1.06431 0.0875,1.11932 0.0945,1.11179 0.004,-0.004 0.81992,-1.07492 1.81415,-2.38029 z m 1.6518,-17.79278 c 0.72939,-0.10128 1.26331,-0.21943 1.8628,-0.41219 1.4356,-0.46162 2.67955,-1.19068 3.8141,-2.23539 0.54809,-0.50469 1.03839,-1.08542 1.49725,-1.77344 0.95919,-1.43818 1.50822,-3.00754 1.66562,-4.76107 0.0211,-0.23552 0.0406,-0.33321 0.0763,-0.38334 0.0745,-0.10467 0.87881,-0.88008 1.19821,-1.1552 0.91289,-0.78634 1.6624,-1.20575 2.45874,-1.37587 0.29892,-0.0639 0.96707,-0.0637 1.27,2.6e-4 1.02184,0.21576 2.06249,0.84236 3.2639,1.96524 0.55668,0.5203 0.54636,0.50494 0.57402,0.85413 0.25731,3.24874 2.05623,6.16439 4.84345,7.85015 1.31069,0.79273 2.81146,1.27853 4.36992,1.41454 0.51691,0.0451 1.6708,0.018 2.16277,-0.0509 1.90332,-0.26637 3.5964,-1.00198 5.08054,-2.20737 0.33107,-0.2689 1.11628,-1.05213 1.38176,-1.37829 1.25587,-1.54293 1.99398,-3.29895 2.24112,-5.33181 0.063,-0.51784 0.0628,-1.64436 -2.5e-4,-2.17144 -0.29395,-2.4567 -1.33888,-4.55292 -3.11574,-6.25044 -1.5737,-1.50343 -3.6464,-2.44966 -5.90019,-2.69354 -0.4647,-0.0503 -1.4673,-0.0565 -1.90923,-0.0119 -2.81563,0.28446 -5.26912,1.60553 -6.98597,3.76155 -1.07425,1.34902 -1.78644,2.94881 -2.06333,4.63481 l -0.0441,0.26874 -0.24119,-0.20673 c -1.18951,-1.01955 -2.42118,-1.65634 -3.55588,-1.83843 -1.61191,-0.25868 -3.17249,0.3217 -4.83815,1.7993 -0.16734,0.14845 -0.31022,0.26989 -0.3175,0.26988 -0.007,-2e-5 -0.0339,-0.12861 -0.0591,-0.28575 -0.23014,-1.43314 -0.86244,-2.95047 -1.74413,-4.1854 -0.9512,-1.33235 -2.27416,-2.45317 -3.74716,-3.17466 -2.3946,-1.17289 -5.12289,-1.35372 -7.65974,-0.5077 -2.48348,0.82823 -4.58682,2.64438 -5.77543,4.98685 -1.35151,2.6635 -1.45724,5.79193 -0.28816,8.52606 0.73372,1.71593 1.92051,3.18491 3.46175,4.28486 1.40185,1.00048 3.15179,1.64162 4.94028,1.81003 0.37686,0.0355 1.73853,0.0122 2.0828,-0.0356 z m -1.74123,-1.33653 c -1.17414,-0.075 -2.28927,-0.37546 -3.34063,-0.89995 -0.8885,-0.44325 -1.52235,-0.90155 -2.24767,-1.62518 -0.51795,-0.51674 -0.74995,-0.79662 -1.11597,-1.34631 -0.76522,-1.14919 -1.21153,-2.35611 -1.40078,-3.78806 -0.0543,-0.41118 -0.0619,-1.51613 -0.0132,-1.92739 0.16664,-1.40676 0.62205,-2.68948 1.35216,-3.80845 0.90011,-1.37951 2.05613,-2.39793 3.52991,-3.10973 0.87699,-0.42357 1.71491,-0.6713 2.73251,-0.80786 0.46214,-0.062 1.61732,-0.0614 2.07979,0.001 1.10016,0.14867 2.03395,0.44 2.9718,0.92719 2.10678,1.0944 3.70271,3.04906 4.34205,5.31804 0.22889,0.81232 0.32628,1.52792 0.32582,2.39414 -7.1e-4,1.38524 -0.2771,2.57897 -0.8821,3.81 -0.47077,0.95792 -1.00921,1.7014 -1.7569,2.42594 -1.51073,1.46397 -3.44016,2.30796 -5.57261,2.43765 -0.45902,0.0279 -0.55182,0.0278 -1.00419,-10e-4 z m 29.00813,-0.0396 c -0.87479,-0.0574 -1.70519,-0.23045 -2.5405,-0.52951 -0.41134,-0.14727 -1.20109,-0.53368 -1.587,-0.7765 -2.32948,-1.46569 -3.81001,-3.87259 -4.06561,-6.60947 -0.044,-0.47106 -0.0175,-1.53222 0.0494,-1.98044 0.23981,-1.60623 0.84511,-2.99189 1.86711,-4.27419 0.26726,-0.33533 0.94845,-1.01393 1.2982,-1.29324 1.28041,-1.02257 2.77181,-1.64668 4.445,-1.8601 0.49136,-0.0627 1.51053,-0.0624 2.0066,6.1e-4 0.70722,0.0898 1.40133,0.25718 2.0266,0.48875 0.39977,0.14806 1.19593,0.5395 1.55997,0.76698 1.9026,1.18886 3.27145,3.05802 3.82602,5.2244 0.1989,0.77697 0.25682,1.25673 0.25758,2.1336 6.4e-4,0.72442 -0.0191,0.98603 -0.11519,1.52632 -0.63655,3.57931 -3.40271,6.37479 -6.97078,7.04468 -0.57811,0.10854 -1.53196,0.17257 -2.0574,0.13811 z"
         id="path54781" /><path
         style="fill:#000000;stroke-width:0.0254"
         d="m -462.39454,314.58682 c -1.00152,-0.10225 -1.80589,-0.62156 -2.4326,-1.57047 -1.04988,-1.58965 -1.30727,-4.20132 -0.61982,-6.28904 0.29108,-0.88398 0.69352,-1.55887 1.25272,-2.10085 0.42277,-0.40975 0.83847,-0.64748 1.3769,-0.78745 0.25024,-0.065 0.3541,-0.0779 0.72478,-0.0894 0.47674,-0.0148 0.7765,0.0111 1.24068,0.10738 1.809,0.37513 4.24567,1.70712 6.86104,3.75054 0.26543,0.20738 0.52397,0.41126 0.57453,0.45306 l 0.0919,0.076 0.072,-0.10391 c 0.11745,-0.16948 0.38057,-0.39218 0.59545,-0.50397 0.59296,-0.30849 1.30902,-0.27458 1.85413,0.0878 0.15707,0.10442 0.39597,0.33279 0.4881,0.46657 l 0.0416,0.0604 0.41442,-0.3295 c 0.53592,-0.4261 1.32256,-1.00989 1.85794,-1.37882 3.54452,-2.44256 6.26608,-3.24896 7.91639,-2.34561 1.11419,0.60989 1.92667,1.97021 2.22031,3.71742 0.27976,1.66455 0.0597,3.38947 -0.59937,4.69879 -0.53898,1.07071 -1.28599,1.7396 -2.21784,1.98591 -0.29673,0.0784 -0.31961,0.0806 -0.8636,0.0822 -0.59286,0.002 -0.78143,-0.0203 -1.3081,-0.15317 -1.84249,-0.4648 -4.32122,-1.92914 -6.89318,-4.07221 -0.23589,-0.19655 -0.43591,-0.35728 -0.4445,-0.35717 -0.009,0 -0.0416,0.0457 -0.0733,0.10129 -0.0318,0.0556 -0.12735,0.17551 -0.21243,0.26647 -0.78555,0.83976 -2.1404,0.75276 -2.80614,-0.18019 -0.0637,-0.0893 -0.12114,-0.16237 -0.1276,-0.16237 -0.006,0 -0.19119,0.14939 -0.41052,0.33197 -1.96585,1.63648 -3.96218,2.93712 -5.54621,3.61344 -1.13197,0.48332 -2.21813,0.70746 -3.02767,0.6248 z m 9.4197,-10.76976 c -8.05042,-0.26633 -15.75987,-3.26852 -21.8694,-8.51631 -1.2559,-1.07875 -2.69601,-2.52029 -3.79005,-3.7938 -2.49629,-2.90579 -4.52832,-6.25756 -5.9636,-9.83674 -2.35109,-5.86293 -3.08873,-12.21312 -2.14351,-18.4531 0.99159,-6.54618 3.81969,-12.71021 8.13427,-17.7292 1.07637,-1.2521 2.53112,-2.70608 3.77559,-3.77358 3.8625,-3.31324 8.36798,-5.74189 13.2659,-7.1509 4.97345,-1.43075 10.26073,-1.74874 15.3599,-0.92381 6.17734,0.99935 11.9261,3.58745 16.7767,7.55288 1.52853,1.2496 3.0946,2.78041 4.4085,4.30926 4.87944,5.67768 7.84784,12.8301 8.41692,20.28075 0.13762,1.80178 0.13768,3.65176 2.5e-4,5.461 -0.35819,4.71352 -1.71783,9.44954 -3.9158,13.6398 -2.36168,4.50239 -5.62699,8.41162 -9.61945,11.51639 -6.50448,5.05828 -14.60578,7.68964 -22.83617,7.41736 z m -13.88206,-10.83115 c 0.96673,-1.27127 1.77605,-2.32566 1.7985,-2.34309 0.13249,-0.10289 0.92223,-0.35704 1.51716,-0.48825 0.57988,-0.12788 0.91012,-0.17524 2.4003,-0.3442 1.95686,-0.22188 2.75077,-0.36679 3.70176,-0.67568 2.27124,-0.73773 3.91986,-2.25616 5.1728,-4.76433 0.11728,-0.23477 0.25014,-0.51257 0.29524,-0.61735 0.0451,-0.10477 0.0843,-0.19322 0.0871,-0.19654 0.003,-0.003 0.0317,0.0596 0.0643,0.1397 0.0878,0.21592 0.50603,1.04799 0.67338,1.33954 1.21229,2.11217 2.85558,3.47719 4.95337,4.11458 0.91578,0.27825 1.73231,0.4222 3.5306,0.62242 1.05865,0.11788 1.35598,0.15645 1.8796,0.24384 0.69254,0.11558 1.40558,0.30902 1.87544,0.50879 l 0.20736,0.0881 1.8034,2.3727 c 0.99187,1.30498 1.80995,2.37313 1.81795,2.37366 0.017,10e-4 0.11696,-1.32605 0.15098,-2.00564 0.0494,-0.98655 0.0231,-2.39375 -0.065,-3.4798 -0.32971,-4.06307 -1.47117,-7.49629 -3.21999,-9.68489 -1.33616,-1.67216 -2.9764,-2.62259 -4.92118,-2.85154 -0.45141,-0.0532 -1.29394,-0.0524 -1.77641,0.002 -2.01995,0.22604 -4.1823,1.10748 -6.60692,2.69318 l -0.39662,0.25939 -0.32728,-0.21422 c -2.17932,-1.42648 -4.20999,-2.3092 -6.02958,-2.62101 -0.58121,-0.0996 -0.81469,-0.11743 -1.524,-0.11642 -0.53221,7.6e-4 -0.77106,0.0117 -1.0033,0.0459 -1.30655,0.19267 -2.42252,0.67729 -3.4671,1.50562 -0.31872,0.25274 -0.99362,0.94015 -1.29366,1.31764 -0.79688,1.00258 -1.46435,2.24289 -2.0054,3.72648 -0.54574,1.49645 -0.95206,3.33625 -1.1572,5.23972 -0.13029,1.20901 -0.18567,2.65428 -0.1455,3.7973 0.0254,0.72384 0.11323,2.11779 0.14701,2.33424 0.0131,0.0842 0.0146,0.0851 0.0594,0.0381 0.0253,-0.0265 0.83688,-1.08837 1.80361,-2.35964 z m 1.05506,-17.71672 c 2.46103,-0.17425 4.66992,-1.15757 6.40328,-2.85049 1.69585,-1.65629 2.71954,-3.75112 2.99462,-6.12803 0.021,-0.18153 0.0382,-0.38843 0.0382,-0.45979 v -0.12975 l 0.53996,-0.53081 c 0.94511,-0.9291 1.62012,-1.4432 2.31245,-1.76124 1.7202,-0.79019 3.43495,-0.22081 5.55566,1.84475 l 0.36994,0.36032 0.0315,0.38256 c 0.10246,1.2452 0.45656,2.50799 1.02054,3.63949 0.50192,1.00696 1.10328,1.83869 1.91571,2.6496 0.47255,0.47165 0.85195,0.7916 1.36066,1.14743 2.50117,1.7495 5.70382,2.26334 8.6487,1.3876 1.87891,-0.55875 3.6093,-1.69926 4.86063,-3.20368 1.25695,-1.51117 2.02208,-3.28061 2.28136,-5.27584 0.066,-0.50809 0.0662,-1.90663 3e-4,-2.4003 -0.26443,-1.98105 -1.02657,-3.74868 -2.26343,-5.2496 -0.28114,-0.34115 -0.98672,-1.04598 -1.31529,-1.31388 -1.54138,-1.25676 -3.23418,-1.98822 -5.21458,-2.2532 -0.3647,-0.0488 -0.55021,-0.058 -1.1938,-0.0592 -0.80481,-0.002 -1.10562,0.0206 -1.72847,0.12679 -3.9654,0.67626 -7.15603,3.6423 -8.1137,7.54259 -0.0549,0.22352 -0.11759,0.51499 -0.13934,0.6477 -0.0218,0.13272 -0.0453,0.26699 -0.0523,0.29839 -0.0117,0.0523 -0.034,0.0391 -0.26604,-0.15762 -1.13951,-0.96602 -2.22927,-1.54692 -3.34703,-1.78416 -0.29595,-0.0628 -0.37213,-0.0687 -0.90727,-0.0698 -0.51226,-10e-4 -0.62018,0.006 -0.8763,0.0574 -1.08643,0.21815 -2.23708,0.85985 -3.32105,1.85211 -0.12923,0.11829 -0.23495,0.20329 -0.23495,0.18889 0,-0.0144 -0.029,-0.1841 -0.0645,-0.37712 -0.49816,-2.70962 -2.05584,-5.07695 -4.34231,-6.59934 -1.20086,-0.79956 -2.51266,-1.31778 -3.94977,-1.56033 -0.58589,-0.0989 -0.83464,-0.11609 -1.6637,-0.1151 -0.85899,0.001 -1.23161,0.0334 -1.8923,0.16451 -4.7681,0.9461 -8.1758,5.07019 -8.17854,9.89789 -0.002,4.23391 2.60974,7.99409 6.58583,9.48032 1.29921,0.48563 2.79734,0.70644 4.14541,0.61099 z m -1.3843,-1.42295 c -1.76099,-0.1654 -3.35835,-0.81654 -4.76213,-1.94121 -0.35648,-0.2856 -0.94392,-0.88044 -1.2553,-1.27112 -1.00706,-1.26349 -1.60048,-2.64954 -1.8487,-4.318 -0.065,-0.43718 -0.0647,-1.79055 6e-4,-2.2479 0.2424,-1.69824 0.91526,-3.21719 1.98592,-4.4831 1.45877,-1.72481 3.52081,-2.80321 5.80341,-3.03505 0.34223,-0.0348 1.3059,-0.035 1.651,-3.3e-4 1.70795,0.17134 3.27892,0.81377 4.6355,1.89563 0.3578,0.28534 1.00671,0.93404 1.2879,1.28747 1.0256,1.28913 1.63554,2.72274 1.86614,4.38618 0.0551,0.39767 0.0638,1.65933 0.0139,2.032 -0.11726,0.87676 -0.27566,1.50839 -0.55734,2.2225 -0.88849,2.25253 -2.64178,4.00415 -4.90531,4.90066 -0.62615,0.248 -1.34152,0.43138 -2.08824,0.53531 -0.3441,0.0479 -1.4688,0.0706 -1.82738,0.037 z m 29.0195,-0.0403 c -1.24361,-0.12653 -2.15252,-0.38026 -3.175,-0.88632 -0.92624,-0.45844 -1.60708,-0.94952 -2.32916,-1.68001 -1.39772,-1.41401 -2.21025,-3.12605 -2.46336,-5.19042 -0.0424,-0.34552 -0.0426,-1.45489 -4.1e-4,-1.8034 0.1349,-1.11374 0.41552,-2.06714 0.88325,-3.00076 0.79089,-1.57869 2.06351,-2.88902 3.63182,-3.73945 0.88696,-0.48096 1.94568,-0.82198 3.02105,-0.97309 0.46599,-0.0655 1.76111,-0.0653 2.2225,3.3e-4 1.02453,0.14572 1.93449,0.43169 2.8321,0.89003 0.63788,0.32572 1.15989,0.67339 1.7018,1.13346 0.27949,0.23729 0.87432,0.85106 1.10856,1.14386 1.86583,2.33233 2.41063,5.4351 1.4493,8.25402 -0.99485,2.91722 -3.48753,5.10314 -6.50101,5.70099 -0.59073,0.1172 -0.87342,0.14432 -1.59405,0.15292 -0.37719,0.005 -0.73152,0.004 -0.7874,-0.002 z"
         id="path54779" /></g></g></svg>
