<?xml version="1.0" encoding="UTF-8" standalone="no"?>
<!-- Created with Inkscape (http://www.inkscape.org/) -->

<svg
   width="38.72604mm"
   height="35.781162mm"
   viewBox="0 0 38.72604 35.781162"
   version="1.1"
   id="svg5"
   xml:space="preserve"
   xmlns="http://www.w3.org/2000/svg"
   xmlns:svg="http://www.w3.org/2000/svg"><defs
     id="defs2" /><g
     id="layer1"
     transform="translate(-37.392847,-115.59244)"><path
       id="path68767-0-3"
       style="fill:#00a600;fill-opacity:1;stroke:#00a600;stroke-width:0.950774;stroke-dasharray:none;stroke-opacity:1"
       d="m 68.435718,116.06713 v 2.8e-4 2.8e-4 c -0.08225,0.002 -0.16799,0.0104 -0.258892,0.0242 -0.729965,0.10972 -1.683617,0.91582 -2.665286,2.25321 -0.730863,0.99564 -1.298536,2.37493 -1.586941,3.85472 -0.208858,1.07159 -0.513472,3.70258 -0.513472,4.43478 0,0.68191 -0.05925,0.7071 -0.400537,0.17078 -0.430439,-0.67631 -0.770954,-0.69494 -1.437608,-0.0781 -1.498066,1.38604 -1.900898,1.49551 -3.581544,0.97181 -3.968386,-1.23649 -5.166389,-1.35999 -6.906447,-0.71089 -2.543097,0.94865 -5.927063,4.33751 -7.362704,7.37317 -0.390257,0.82521 -0.424711,0.85732 -0.831459,0.77783 -0.370271,-0.0726 -0.473639,-0.0101 -0.811572,0.48112 -0.674736,0.98264 -0.877466,2.80905 -0.447811,4.03556 0.306616,0.87526 0.888806,1.56045 1.986346,2.33758 0.931636,0.65972 1.177011,0.77058 2.988719,1.35161 1.506618,0.48324 5.626519,0.52594 6.823338,0.0709 1.075624,-0.40911 1.693901,-0.71674 2.327227,-1.15815 l 0.535233,-0.37295 -0.06922,0.50436 c -0.08646,0.62956 -0.230234,0.84122 -0.779495,1.14855 -1.501772,0.84036 -4.610924,1.0784 -7.189165,0.55056 -0.163626,-0.0333 -0.255627,0.13886 -0.396219,0.74176 -0.23349,1.00125 -1.002182,2.45183 -1.581314,2.9843 -0.246993,0.227 -0.753098,0.53615 -1.124685,0.68654 -0.634187,0.25712 -0.736508,0.25614 -1.667798,-0.013 -1.463467,-0.42325 -3.19358,-1.6691 -3.19358,-2.29967 0,-0.32492 0.729181,-0.89722 1.535909,-1.20537 0.889508,-0.33976 2.105168,-0.11103 2.37338,0.44668 0.176514,0.36704 0.489269,0.46151 0.489269,0.14772 0,-0.1058 -0.08309,-0.32589 -0.184588,-0.48931 -0.154765,-0.24895 -0.16628,-0.43195 -0.07129,-1.13163 0.136096,-1.00252 -0.02294,-1.37666 -0.509342,-1.19888 -0.594071,0.21715 -2.908688,0.1523 -3.107657,-0.0875 -0.272864,-0.32842 -0.240742,-0.4103 0.314983,-0.80352 0.565735,-0.40022 0.955817,-1.10135 0.766366,-1.37728 -0.185445,-0.27022 -0.538467,-0.0196 -0.984171,0.69944 -0.559231,0.90149 -1.083939,0.98793 -1.208441,1.04339 -0.160972,0.0586 -0.185353,0.0685 -0.397333,0.11857 -0.312256,0.0489 -0.300486,0.0621 -0.585706,0.0767 -0.219293,-0.003 -1.500673,-0.0556 -0.446506,0.13527 0.188007,0.0262 0.676224,0.0632 1.473527,-0.0581 0.54223,-0.0826 0.533023,-0.21653 0.807823,0.2486 0.261118,0.44229 0.338322,0.47417 1.274769,0.52379 0.548168,0.0294 1.29004,-0.0163 1.648661,-0.0989 0.359753,-0.0843 0.678823,-0.0901 0.711771,-0.013 0.03284,0.0774 0.02481,0.47932 -0.01777,0.89311 -0.069,0.6701 -0.103709,0.74082 -0.317048,0.64727 -0.613055,-0.26891 -1.613633,-0.27777 -2.213163,-0.0196 -0.887932,0.38208 -1.51539,0.93744 -1.55899,1.37969 -0.130767,1.32638 3.311772,3.34729 4.883894,2.86705 0.339604,-0.10385 0.808899,-0.31936 1.04289,-0.47948 0.628091,-0.4296 1.559077,-1.86273 1.920872,-2.95669 l 0.317428,-0.95953 0.616089,0.082 c 2.059388,0.27451 5.838351,-0.11201 6.555067,-0.67072 0.33489,-0.26105 0.388022,-0.15297 0.09494,0.19326 -0.155058,0.18309 -0.70719,0.93829 -1.226742,1.67806 -1.417678,2.01855 -1.971626,3.4377 -1.570245,4.0222 v -9.9e-4 c 0.171385,0.25058 0.884876,0.25615 1.29728,0.0101 3.219972,-1.91594 6.784405,-5.58781 6.964979,-7.17505 0.03774,-0.33174 0.01911,-0.97866 -0.04146,-1.43763 -0.129977,-0.98579 -0.836153,-2.79138 -1.201976,-3.07336 l -0.257208,-0.1983 0.438996,-1.06117 c 0.241488,-0.58368 0.547886,-1.4516 0.680815,-1.9286 l 0.241633,-0.86716 0.209913,0.38823 c 0.115382,0.21363 0.397035,0.51794 0.626034,0.6762 0.545257,0.37678 1.736297,0.38829 2.121611,0.0209 0.153843,-0.14687 0.332379,-0.26695 0.396598,-0.26695 0.161646,0 0.132499,1.75593 -0.04071,2.45398 -0.123479,0.49771 -0.226443,0.60614 -0.865418,0.91196 -1.358804,0.65036 -2.135118,1.38414 -2.135118,2.01795 0,0.16935 0.133848,0.48669 0.297353,0.7057 0.506448,0.67844 0.943272,1.65917 0.943272,2.11738 0,0.3079 -0.21756,0.78975 -0.732968,1.62315 -0.81404,1.31628 -0.929994,1.87207 -0.455691,2.18678 0.660211,0.43804 3.064417,-1.2755 3.944369,-2.53075 0.165831,-0.25188 0.357642,-0.47331 0.4711,-0.78652 l 0.347284,0.15625 c 0.265057,0.0901 0.67969,0.25286 1.047267,0.30297 7.53e-4,-4.8e-4 -0.0056,-9.9e-4 0.01642,1.1e-4 0.01326,-0.0164 0.0042,-0.0294 -0.0017,-0.0419 -0.02256,-0.0294 -0.04467,-0.0435 -0.07935,-0.0642 -0.04942,-0.0262 -0.08184,-0.033 -0.125053,-0.0642 -0.08799,-0.0477 -0.06086,-0.0356 -0.167,-0.10049 -0.07202,-0.0422 -0.08094,-0.0489 -0.207979,-0.12578 -0.06081,-0.0327 -0.154989,-0.0712 -0.223792,-0.11202 -0.633245,-0.33421 -0.562555,-0.34184 -0.562555,-0.90105 0,-0.76875 -0.477597,-1.91751 -0.992987,-2.38841 -0.515612,-0.47101 -0.998133,-0.65778 -1.097106,-0.42456 -0.1587,0.37392 0.09349,1.00147 0.912316,2.26903 0.732891,1.13499 0.890057,1.18566 0.788454,1.46215 -0.328236,0.89312 -1.835596,2.35712 -3.147384,2.91249 -1.204831,0.51011 -1.270573,0.0787 -0.241445,-1.58543 0.649089,-1.04956 0.7329,-1.26186 0.732592,-1.85318 -4.36e-4,-0.5775 -0.08523,-0.80603 -0.626221,-1.68926 -0.510459,-0.83337 -0.605351,-1.07669 -0.515161,-1.32209 0.139516,-0.37966 1.136362,-1.11266 1.874912,-1.3786 0.310152,-0.11155 0.646804,-0.30284 0.748168,-0.42484 0.39391,-0.47428 0.647864,-3.08334 0.34331,-3.52687 -0.106227,-0.15466 -0.215987,-0.14648 -0.500898,0.0383 -0.209599,0.13568 -0.725035,0.23777 -1.210798,0.24042 -0.70651,0.004 -0.906181,-0.0585 -1.212107,-0.37647 -0.40237,-0.418 -0.544032,-0.94861 -0.429802,-1.61139 l 0.0745,-0.43143 0.336187,0.66583 c 0.398191,0.78853 1.128613,1.3499 1.746029,1.34064 0.551124,-0.008 1.702061,-0.7335 2.207158,-1.39173 0.208722,-0.27201 0.582593,-0.8623 0.830708,-1.31197 0.842759,-1.52724 1.161277,-1.80417 2.255564,-1.96026 1.451842,-0.20711 2.801766,-0.60322 3.096399,-0.90873 0.160477,-0.16642 0.42882,-0.69026 0.596394,-1.16388 0.22553,-0.63751 0.415305,-0.93489 0.730718,-1.14556 1.507861,-1.00715 2.982125,-4.60226 2.616321,-6.3803 -0.160387,-0.77963 -0.582885,-1.17046 -1.265201,-1.17046 -0.617243,0 -2.095456,-0.41829 -2.785914,-0.7882 -0.279132,-0.14727 -0.837435,-0.63131 -1.240625,-1.07359 -0.870052,-0.95444 -1.279057,-1.24494 -1.854839,-1.22945 z m 0.07917,0.30191 c 0.34554,0 1.310603,0.71449 1.722388,1.27534 0.36637,0.49899 0.750774,0.82194 1.294092,1.08686 0.68045,0.3318 2.115094,0.75827 2.5516,0.75843 1.065864,4e-4 1.368538,0.48286 1.246252,1.98653 -0.08326,1.02402 -0.419608,2.02376 -1.086978,3.23017 -0.727167,1.31453 -1.280336,1.8348 -1.960458,1.84035 -0.641947,0.007 -1.012864,-0.31936 -1.479066,-1.29911 -0.174379,-0.36647 -0.38629,-0.66637 -0.47089,-0.66637 -0.381599,0 -0.02024,1.7125 0.482893,2.28896 0.167271,0.19162 0.519225,0.42736 0.78212,0.52376 l 0.478017,0.17537 -0.215178,0.53111 c -0.118351,0.29217 -0.329547,0.61341 -0.469197,0.71363 -0.363176,0.26082 -1.33547,0.53114 -2.510889,0.69833 -1.459051,0.20755 -1.808264,0.46029 -2.588562,1.87342 -0.486383,0.88083 -0.768324,1.31868 -1.162015,1.80483 l -0.254955,0.31526 0.193787,-0.76171 c 0.26061,-1.02404 0.123524,-1.65398 -0.37521,-1.72505 -0.294756,-0.042 -0.422614,0.0714 -0.815511,0.72126 -0.501208,0.82926 -0.620896,1.64695 -0.298106,2.03707 0.09236,0.11148 0.140145,0.2684 0.106206,0.3486 -0.10263,0.24187 -0.753121,0.1573 -1.23312,-0.16029 -0.434725,-0.28762 -1.071032,-1.36431 -1.071032,-1.81248 0,-0.29316 0.374556,-1.03169 1.201791,-2.36928 0.812826,-1.31432 1.053578,-1.964 1.054524,-2.84604 9.5e-4,-0.79723 0.38827,-3.99967 0.605206,-5.00415 0.390323,-1.80718 1.05727,-3.07881 2.282955,-4.35254 0.753218,-0.78278 1.457968,-1.21224 1.989352,-1.21224 z m 1.984093,9.11052 c 0.05335,-0.009 0.198309,0.17579 0.39397,0.53494 0.114168,0.20951 0.393394,0.52369 0.620407,0.69833 0.375198,0.28857 0.387054,0.31703 0.130742,0.31966 -0.359318,0.003 -0.858194,-0.53703 -1.083782,-1.17236 -0.08875,-0.24991 -0.102831,-0.37371 -0.06136,-0.38057 z M 62.284,126.62185 c 0.0928,9.9e-4 0.181034,0.0682 0.337124,0.20246 0.655146,0.5636 0.584386,0.84793 -0.596584,2.39223 l -0.844401,1.10403 -0.140527,-0.49421 c -0.234204,-0.82343 -0.814622,-1.07164 -1.169709,-0.50025 -0.106003,0.17057 -0.386992,1.11294 -0.624347,2.09415 -0.781386,3.23012 -1.386029,4.84347 -2.400955,6.40623 -1.269394,1.95474 -3.009571,3.06809 -5.614043,3.59195 v 0.002 c -1.418773,0.28463 -2.760983,0.28201 -4.060122,-0.003 -1.12965,-0.25026 -1.504992,-0.42051 -2.462115,-1.11471 -0.552276,-0.40057 -0.750243,-0.64413 -0.874045,-1.07558 -0.1818,-0.63374 -0.219968,-3.07248 -0.05047,-3.22505 0.06027,-0.0542 0.235915,0.0219 0.390214,0.16907 0.345674,0.32986 0.717114,0.22946 1.641349,-0.44314 0.371418,-0.27028 0.789979,-0.46752 0.930137,-0.43848 0.321738,0.0667 0.554262,0.78272 0.816829,2.51651 0.346957,2.29103 0.402861,2.54579 0.559059,2.54579 0.242992,0 0.289661,-0.39521 0.289661,-2.45181 0,-1.63591 0.03023,-1.97015 0.197363,-2.18047 0.233207,-0.29349 1.460897,-0.75443 2.371687,-0.89039 0.775182,-0.11567 0.821119,-0.0577 1.716576,2.15562 0.686312,1.69647 1.098137,2.54582 1.234433,2.54582 0.266245,0 0.159083,-1.07493 -0.433552,-4.35255 -0.06533,-0.36134 -0.120195,-0.77461 -0.121409,-0.91854 -0.0015,-0.14389 0.479544,-0.90747 1.068968,-1.69692 l 1.071781,-1.43545 0.265462,0.3008 c 0.14606,0.16549 0.531265,0.61495 0.855848,0.99886 1.014724,1.20027 1.078837,0.81529 0.171092,-1.02729 l -0.624345,-1.2674 0.229628,-0.69068 c 0.270878,-0.81484 0.287789,-1.07972 0.06903,-1.07972 -0.132723,0 -0.756698,0.64033 -0.967283,0.99257 -0.214525,0.35884 -1.708839,2.08838 -2.1839,2.52773 -1.403455,1.29796 -4.971337,2.01902 -6.546434,1.32317 -0.725539,-0.3205 -1.528807,-0.31225 -1.853341,0.018 -0.474308,0.48384 -0.377494,0.10685 0.171858,-0.66908 1.288532,-1.81976 3.452482,-3.87426 5.054607,-4.79867 0.857364,-0.49471 1.780731,-0.70807 3.061506,-0.70762 1.308674,5.2e-4 1.662415,0.0749 4.607739,0.96824 0.620294,0.18816 1.337122,0.34328 1.592945,0.34371 0.569833,0.002 1.320334,-0.36896 1.782801,-0.88083 0.190368,-0.21068 0.512382,-0.50785 0.715709,-0.66034 0.173994,-0.13084 0.271324,-0.19605 0.364138,-0.19506 z m 0.491895,2.22996 c 0.0919,0 -0.404947,0.85887 -0.947586,1.63788 v 2.8e-4 c -0.03315,0.0473 -0.172872,0.29975 -0.310297,0.56034 -0.246051,0.46647 -0.249889,0.46769 -0.249889,0.0854 0,-0.26337 0.223365,-0.69264 0.694886,-1.33602 0.38214,-0.52139 0.747907,-0.94804 0.812886,-0.94804 z m -6.489781,0.13525 c 0.05489,0.002 0.0097,0.14959 -0.145948,0.44915 -0.247703,0.47692 -0.21457,0.6822 0.279341,1.73595 0.248599,0.53041 0.432255,0.96445 0.408225,0.96445 -0.02402,0 -0.335102,-0.32965 -0.691318,-0.73247 l -0.64761,-0.73221 -1.17046,1.58489 c -0.841737,1.13987 -1.170461,1.69295 -1.170461,1.96931 0,0.21137 0.156743,1.26815 0.348195,2.34851 0.191448,1.0804 0.327967,2.05182 0.303541,2.15868 -0.02441,0.10677 -0.358684,-0.58936 -0.74291,-1.54669 -1.000678,-2.49323 -1.1679,-2.75039 -1.787115,-2.75039 -0.845023,0 -2.539728,0.64738 -2.85852,1.09202 -0.263862,0.36802 -0.281968,0.4983 -0.281968,2.03187 0,0.90128 -0.0144,1.63888 -0.03172,1.63898 -0.04628,2.9e-4 -0.100222,-0.27678 -0.304106,-1.5603 -0.454974,-2.86399 -0.763672,-3.19144 -2.088967,-2.21711 -0.728108,0.53525 -1.462991,0.64761 -1.68506,0.2579 -0.174017,-0.30534 0.05057,-0.95289 0.594329,-1.71384 0.505683,-0.70771 1.128539,-0.83529 2.061017,-0.42211 1.475856,0.65389 4.891733,0.0965 6.435187,-1.05022 0.376393,-0.27965 1.539738,-1.50675 1.729895,-1.82478 0.03102,-0.0518 0.373614,-0.4892 0.761296,-0.97182 0.378735,-0.47146 0.614573,-0.71177 0.685128,-0.70977 z m 4.069504,0.35735 c 0.882607,0 0.725428,3.5333 -0.287033,6.45295 -0.565055,1.6295 -0.887119,2.17618 -1.413973,2.40043 -0.652211,0.27763 -1.78914,1.1875 -2.687237,2.15099 -0.403191,0.43253 -0.936037,0.91231 -1.184155,1.06608 -0.7691,0.47651 -2.102609,0.87923 -3.505002,1.05837 -2.006555,0.25648 -4.11534,0.0852 -5.169235,-0.41932 -0.499994,-0.23945 -1.684024,-1.21047 -1.60908,-1.3196 0.01484,-0.0229 0.48216,0.18408 1.038577,0.45679 1.302283,0.63843 2.676969,0.86296 4.498177,0.73466 2.509573,-0.17687 4.600754,-1.11137 6.097311,-2.72504 1.471048,-1.58616 2.434519,-3.77793 3.321524,-7.5567 0.429252,-1.82857 0.613578,-2.29961 0.900126,-2.29961 z m 4.327454,1.97093 c 0.09847,0 0.212725,0.15529 0.254018,0.34478 0.09737,0.44674 -0.243726,1.7465 -0.513471,1.95676 -0.432014,0.3367 -0.787001,0.0646 -0.787001,-0.60271 0,-0.43012 0.781516,-1.69883 1.046454,-1.69883 z m -21.788115,4.10636 c 0.215021,0 0.234788,0.0625 0.168642,0.53385 -0.28243,2.01217 -0.220305,2.38096 0.668808,3.97164 1.151996,2.06107 1.96681,2.61076 4.314325,2.9108 1.138007,0.14543 1.881075,0.14577 3.101466,2.9e-4 2.702441,-0.32164 3.728431,-0.8279 5.471281,-2.69984 0.871871,-0.9365 2.054825,-1.77058 2.054825,-1.44884 0,0.0766 -0.215717,0.42852 -0.479329,0.7819 -1.198829,1.60699 -2.822118,2.82865 -4.76514,3.58669 -0.681128,0.26565 -3.856604,0.45638 -5.075244,0.30497 -1.737989,-0.2162 -4.125766,-1.16779 -5.173552,-2.06112 -0.736078,-0.62755 -0.939816,-0.89191 -1.269516,-1.64743 -0.650784,-1.4915 -0.01395,-4.23262 0.983421,-4.23262 z m 0.512532,0.24619 -0.0074,1.60126 c -0.0042,0.88073 -0.01844,1.60156 -0.0315,1.60159 -0.01326,4e-5 -0.08047,-0.30573 -0.149523,-0.6792 -0.09752,-0.52744 -0.09044,-0.88507 0.0315,-1.60128 z m 16.076336,2.71024 c 0.214301,0 0.591776,0.70779 0.96316,1.80595 0.178853,0.52887 0.251209,1.0442 0.25364,1.80727 0.0031,0.97749 -0.02749,1.11748 -0.363014,1.65649 -1.043207,1.67585 -3.935495,4.39867 -5.898639,5.55299 -0.477266,0.2807 -1.039032,0.51012 -1.248504,0.51012 -0.326384,0 -0.380837,-0.0557 -0.380837,-0.39234 0,-0.96539 2.170067,-4.34296 3.63614,-5.65932 0.339918,-0.30495 0.54817,-0.36847 1.071402,-0.32527 0.709273,0.0584 0.982356,-0.19587 0.397348,-0.36989 -0.326823,-0.0969 -1.236754,-1.05462 -1.260887,-1.32645 -0.0052,-0.0594 0.219967,-0.30329 0.500338,-0.54258 0.280384,-0.23943 0.876574,-0.94845 1.32486,-1.5759 0.448285,-0.62747 0.900482,-1.14094 1.004993,-1.14094 z m 4.432143,1.78985 c 0.239849,0.013 0.826713,0.54395 1.170271,1.18215 0.116956,0.21716 0.248819,0.63503 0.292852,0.92863 0.04739,0.3161 0.03521,0.53386 -0.02961,0.53386 -0.129371,0 -1.319156,-1.84196 -1.489946,-2.30672 -0.08983,-0.24433 -0.05253,-0.34452 0.05646,-0.33792 z m -22.356941,0.67373 c 0.06291,0 0.05077,0.10906 -0.02759,0.24632 -0.07722,0.13561 -0.191247,0.24633 -0.253267,0.24633 -0.0629,0 -0.05076,-0.10909 0.02759,-0.24633 0.07722,-0.1356 0.191225,-0.24632 0.253264,-0.24632 z m 15.097234,1.33926 c 0.06666,0.003 0.149322,0.10907 0.270524,0.30397 0.227984,0.36687 0.233745,0.34925 -0.203369,0.62288 -0.480927,0.30135 -0.472842,0.31315 -0.293787,-0.43492 0.07242,-0.30265 0.127526,-0.46096 0.19905,-0.48798 0.009,-0.003 0.018,-0.003 0.02758,-0.003 z" /><path
       style="fill:#00a600;fill-opacity:1;fill-rule:evenodd;stroke:#00a600;stroke-width:0.483563;stroke-linecap:round;stroke-dasharray:none;stroke-dashoffset:0;stroke-opacity:1;paint-order:markers stroke fill"
       id="path69302-9-6"
       d="m 69.646968,119.9074 a 0.54031694,0.52004546 0 0 1 -0.273736,0.58575 0.54031694,0.52004546 0 0 1 -0.656163,-0.11692 0.54031694,0.52004546 0 0 1 -0.03773,-0.64125 0.54031694,0.52004546 0 0 1 0.638251,-0.18747 l -0.195075,0.48497 z" /></g></svg>
